<?xml version="1.0" standalone="no"?>
<!DOCTYPE svg PUBLIC "-//W3C//DTD SVG 20010904//EN"
 "http://www.w3.org/TR/2001/REC-SVG-20010904/DTD/svg10.dtd">
<svg version="1.0" xmlns="http://www.w3.org/2000/svg"
 width="290.000000pt" height="174.000000pt" viewBox="0 0 290.000000 174.000000"
 preserveAspectRatio="xMidYMid meet">

<g transform="translate(0.000000,174.000000) scale(0.100000,-0.100000)"
fill="#000000" stroke="none">
<path d="M6 1724 c-8 -20 -8 -74 0 -74 3 0 32 19 66 41 57 39 61 40 72 23 5
-11 47 -98 92 -194 l81 -175 -159 -3 -159 -3 3 -317 c3 -292 4 -317 21 -320 9
-2 17 1 17 7 0 6 -7 11 -16 11 -13 0 -14 3 -5 14 9 11 9 15 -1 19 -10 4 -10 6
0 6 8 1 19 -13 25 -29 17 -46 31 -39 28 15 0 11 2 14 5 7 3 -6 9 -10 12 -8 4
2 7 -9 8 -26 1 -16 -2 -24 -6 -18 -5 8 -10 9 -14 2 -4 -6 -22 -10 -41 -8 l-35
2 0 -120 0 -121 26 26 26 26 -23 42 c-21 36 -22 43 -9 51 23 15 54 7 58 -15 4
-19 3 -19 -10 -2 -8 11 -20 16 -31 11 -22 -8 -21 -16 3 -47 25 -32 25 -33 -5
-69 -33 -38 -32 -48 5 -48 17 0 30 5 30 11 0 5 5 7 10 4 20 -12 -1 -25 -41
-25 -21 0 -39 -5 -39 -11 0 -5 4 -7 10 -4 6 3 10 -5 10 -19 0 -14 -4 -28 -10
-31 -6 -3 -10 -22 -10 -42 0 -30 3 -34 18 -28 65 29 190 57 270 62 l94 6 -3
143 c-2 79 1 144 6 144 5 0 8 -65 6 -145 l-3 -145 54 0 c188 0 395 -82 465
-185 19 -27 33 -60 33 -77 l0 -29 108 1 c135 1 137 1 129 -7 -4 -4 -57 -5
-119 -4 -83 2 -113 -1 -119 -11 -17 -26 -9 -38 26 -38 19 0 35 5 35 11 0 5 -4
7 -10 4 -5 -3 -10 -1 -10 4 0 6 7 11 15 11 8 0 15 -7 15 -15 0 -13 22 -15 140
-15 l140 0 -7 32 c-4 21 -3 29 5 24 7 -4 12 6 14 26 2 17 10 33 18 35 10 3 11
2 4 -4 -6 -4 -13 -32 -16 -60 l-5 -53 183 0 c174 0 183 1 189 20 9 27 45 27
45 -1 0 -18 5 -20 71 -18 l71 2 -4 29 c-3 20 0 28 10 28 8 0 12 -6 8 -15 -3
-8 -3 -22 0 -30 5 -13 35 -15 181 -15 181 0 203 5 203 44 0 17 18 31 28 22 3
-4 1 -16 -6 -26 -17 -28 -14 -49 3 -26 13 17 15 18 15 3 0 -9 5 -17 10 -17 6
0 10 6 10 13 0 18 70 19 77 1 3 -10 22 -14 59 -14 l53 0 4 53 3 52 2 -52 2
-53 71 0 72 0 -7 49 c-7 53 6 75 23 42 14 -25 14 -34 1 -26 -6 4 -10 -8 -10
-29 l0 -36 60 0 c41 0 60 4 60 13 0 21 -14 35 -40 40 -25 4 -25 4 3 6 23 1 27
5 27 29 0 36 53 117 91 139 l29 17 0 108 0 108 -30 0 c-19 0 -30 5 -30 14 0
23 20 29 39 12 15 -14 17 -13 19 14 1 17 -2 30 -8 30 -5 0 -10 8 -10 18 -1 16
-2 16 -15 -1 -13 -18 -14 -17 -17 5 l-5 23 -11 -25 c-6 -14 -11 -21 -11 -16
-1 5 -7 3 -15 -3 -9 -7 -17 -8 -20 -2 -3 5 -15 7 -26 4 -14 -4 -20 0 -20 11 0
10 -4 14 -10 11 -5 -3 0 10 13 29 12 19 25 35 30 36 13 0 8 -27 -8 -40 -17
-14 -20 -40 -5 -40 6 0 13 7 16 15 4 8 10 15 15 15 4 0 5 -8 2 -17 -6 -14 -1
-13 22 5 18 14 32 19 38 13 5 -5 15 -7 22 -4 7 2 15 -4 18 -14 3 -10 5 22 6
70 1 65 -2 86 -11 81 -8 -5 -9 -2 -5 9 3 10 2 17 -4 17 -5 0 -12 -6 -14 -12
-3 -7 -16 -14 -30 -14 -22 -2 -25 2 -25 35 0 20 5 43 11 51 8 11 9 3 6 -33
l-5 -48 22 20 c20 19 24 21 46 21 6 0 10 48 10 124 l0 125 -47 4 -48 3 48 2
47 2 0 165 0 165 -191 2 -191 3 191 130 190 130 1 70 c0 49 -3 65 -10 55 -5
-8 -10 -25 -10 -37 0 -12 -4 -25 -10 -28 -6 -3 -10 5 -10 19 0 13 -6 27 -12
29 -8 3 -7 6 4 6 31 2 30 21 -1 21 -20 0 -31 -6 -34 -17 -4 -17 -5 -17 -6 0 0
9 -8 17 -17 17 -11 0 -15 -6 -11 -20 4 -15 0 -20 -14 -20 -10 0 -19 5 -19 10
0 6 5 10 11 10 5 0 7 4 4 10 -10 17 -53 11 -58 -7 -4 -17 -5 -17 -6 0 0 9 -7
17 -15 17 -11 0 -14 -20 -15 -87 -1 -48 -3 -89 -6 -91 -5 -5 -9 112 -5 156 1
21 -2 22 -69 22 l-70 0 -4 -42 -4 -43 -1 43 c-2 42 -2 42 -39 42 -32 0 -35 -2
-20 -13 15 -11 16 -15 4 -31 -17 -24 -37 -13 -37 20 0 23 -3 25 -42 22 -37 -3
-43 -6 -42 -25 0 -13 -7 -23 -17 -26 -15 -4 -17 0 -12 24 4 22 2 29 -10 29
-14 0 -31 -58 -20 -70 2 -2 54 -7 116 -11 73 -5 34 -6 -110 -3 -123 2 -222 1
-222 -4 3 -20 -2 -32 -15 -32 -9 0 -12 7 -9 20 5 17 -1 19 -63 23 -38 1 9 4
104 5 l172 2 0 28 c0 21 2 24 10 12 8 -12 10 -11 10 8 0 20 -5 22 -53 22 -45
0 -55 -3 -63 -22 -6 -13 -9 -17 -7 -10 1 6 -2 12 -8 12 -6 0 -7 5 -4 11 5 7
-8 9 -37 7 -37 -3 -43 -6 -42 -25 0 -16 -5 -23 -19 -23 -15 0 -17 3 -9 13 7 8
7 18 2 27 -8 13 -12 12 -27 -3 -16 -15 -16 -19 -3 -27 12 -8 9 -10 -12 -10
-30 0 -38 17 -13 26 21 8 19 24 -4 24 -13 0 -20 -10 -25 -32 -7 -33 -21 -29
-28 7 -3 17 -12 20 -74 23 -70 3 -72 2 -78 -24 -9 -35 0 -43 14 -13 9 19 19
24 48 24 26 0 38 -5 40 -17 2 -9 -1 -19 -7 -22 -5 -4 -7 4 -4 16 5 23 4 23
-17 -2 -15 -17 -20 -19 -16 -7 8 25 -9 21 -22 -5 -6 -13 -11 -17 -11 -10 -1 8
-6 10 -13 5 -7 -4 -23 -8 -35 -8 -22 -1 -29 14 -24 53 1 9 -33 12 -145 12 -81
0 -145 -3 -141 -6 3 -3 2 -17 -3 -29 -6 -16 -5 -25 3 -28 7 -2 9 -8 5 -12 -13
-14 -30 7 -24 31 4 14 2 24 -4 24 -5 0 -10 -5 -10 -11 0 -5 -4 -8 -9 -5 -5 3
-11 -1 -15 -9 -3 -8 3 -19 12 -25 15 -10 15 -10 -3 -8 -33 5 -30 35 7 58 l33
20 -69 0 c-68 0 -68 0 -64 -25 3 -14 1 -25 -3 -25 -5 0 -9 8 -9 18 -1 15 -2
15 -15 -2 -13 -17 -15 -18 -15 -3 0 9 -4 17 -10 17 -5 0 -10 -8 -10 -17 0 -9
-3 -13 -7 -10 -3 4 -12 2 -19 -4 -8 -6 -14 -7 -18 0 -4 6 -13 8 -20 5 -14 -6
-30 22 -20 37 3 5 -11 9 -30 9 -24 0 -36 -5 -36 -14 0 -23 -31 -29 -37 -7 -4
14 -14 19 -46 19 -23 0 -36 -2 -29 -5 22 -9 12 -23 -15 -22 -16 0 -22 3 -15 6
18 7 14 23 -6 23 -11 0 -24 -10 -30 -22 l-11 -23 -7 23 c-5 18 -14 22 -44 22
-28 0 -40 -5 -43 -17 -4 -17 -5 -17 -6 0 -1 20 -46 24 -54 5 -4 -10 -6 -10 -6
0 -1 6 -10 12 -21 12 -12 0 -17 -5 -14 -13 3 -8 -4 -13 -17 -14 -17 -2 -18 1
-9 13 10 11 8 14 -10 14 -16 0 -20 -4 -16 -16 4 -12 0 -15 -17 -12 -12 2 -21
9 -19 16 1 6 -5 12 -13 12 -8 0 -15 -7 -15 -15 0 -8 -4 -15 -10 -15 -5 0 -10
7 -10 15 0 13 -15 15 -97 13 -89 -3 -98 -5 -102 -23 -3 -19 -3 -19 17 -2 20
18 20 18 25 0 4 -15 5 -16 6 -1 1 13 10 17 41 16 32 0 40 -4 40 -19 0 -11 -5
-19 -11 -19 -6 0 -8 8 -5 18 6 16 5 16 -8 0 -16 -22 -27 -23 -20 -3 4 8 1 15
-5 15 -7 0 -14 -6 -17 -14 -7 -19 -71 -18 -78 1 -3 8 -4 19 0 24 3 5 -65 9
-164 9 -146 0 -171 -2 -176 -16z m1576 -1 c-23 -4 -23 -5 -6 -24 14 -15 14
-21 4 -34 -14 -16 -36 -20 -44 -7 -3 5 5 8 17 8 13 -1 22 5 22 14 0 8 -6 14
-12 13 -14 -3 -18 19 -6 30 3 4 16 6 27 6 19 -2 18 -2 -2 -6z m528 -2 c0 -17
-18 -21 -24 -6 -3 9 0 15 9 15 8 0 15 -4 15 -9z m280 -1 c0 -5 -7 -10 -16 -10
-8 0 -12 5 -9 10 3 6 10 10 16 10 5 0 9 -4 9 -10z m-1058 -9 c5 9 6 5 2 -13
-4 -18 -2 -28 6 -28 6 0 9 -4 6 -9 -3 -5 -16 -7 -28 -3 -12 3 -18 7 -12 9 6 2
9 16 8 31 -2 15 -1 21 2 13 5 -11 8 -11 16 0z m164 -34 c-7 -51 -19 -98 -27
-102 -4 -3 -13 3 -18 14 -8 14 -6 25 9 44 17 21 18 26 5 31 -18 7 -19 28 -3
44 16 16 37 -3 34 -31z m160 11 c-1 -24 -5 -28 -31 -27 -27 0 -28 1 -8 9 15 6
20 15 16 28 -3 12 1 19 10 19 9 0 14 -10 13 -29z m982 -1 c3 -12 -3 -17 -20
-16 -18 1 -19 2 -5 6 15 4 16 7 5 20 -11 14 -11 15 2 11 8 -2 16 -12 18 -21z
m-41 7 c-3 -3 -12 -4 -19 -1 -8 3 -5 6 6 6 11 1 17 -2 13 -5z m-1477 -16 c0
-4 -128 -7 -284 -6 -156 2 -279 6 -272 11 15 10 556 6 556 -5z m-643 -15 c-17
-4 -17 -6 -3 -22 15 -16 15 -19 1 -31 -13 -11 -18 -11 -28 0 -10 10 -9 12 6 7
11 -4 17 -1 17 7 0 8 -5 16 -12 18 -17 6 0 28 20 27 15 -1 14 -2 -1 -6z m273
3 c0 -11 -19 -15 -25 -6 -3 5 1 10 9 10 9 0 16 -2 16 -4z m1116 -19 c-1 -13
-6 -28 -10 -35 -9 -14 -36 -16 -36 -2 0 5 7 7 15 4 9 -4 15 0 15 9 0 8 -5 17
-12 19 -15 5 -1 28 17 28 8 0 13 -9 11 -23z m-1510 -17 c1 -23 -3 -27 -25 -27
-14 0 -20 2 -13 4 6 3 12 15 12 27 0 32 25 28 26 -4z m1379 13 c-3 -8 -5 -19
-5 -24 0 -5 -8 -9 -17 -8 -10 0 -13 3 -7 5 7 3 10 13 7 23 -3 12 1 18 12 18
10 0 14 -6 10 -14z m-1307 -4 c-2 -6 -7 -10 -11 -10 -4 1 -17 1 -29 2 -22 1
-22 1 2 9 36 11 42 11 38 -1z m312 1 c12 -8 11 -10 -7 -10 -22 0 -40 -31 -28
-50 7 -12 -31 -8 -42 5 -5 4 -2 5 5 1 8 -5 12 1 12 19 0 15 4 24 10 20 6 -3
13 1 16 9 7 18 13 19 34 6z m99 -35 c-9 -33 -13 -36 -21 -21 -7 12 -6 22 4 33
11 15 10 16 -11 10 -13 -3 -20 -2 -15 3 8 7 45 18 51 15 1 -1 -2 -19 -8 -40z
m206 35 c-18 -7 -19 -8 -2 -15 9 -4 17 -16 17 -26 0 -23 -27 -36 -42 -21 -7 7
-4 10 8 9 11 -1 19 4 19 13 0 8 -7 14 -17 12 -12 -2 -15 3 -11 18 3 12 13 20
27 19 20 0 20 -1 1 -9z m131 -14 c1 -18 -3 -24 -17 -23 -11 1 -15 5 -10 10 5
5 7 16 4 23 -3 8 1 14 8 14 8 0 15 -11 15 -24z m132 1 c4 -20 -25 -34 -39 -20
-14 14 1 45 20 41 9 -2 17 -11 19 -21z m501 -1 c-2 -2 -17 -2 -34 2 -30 6 -30
6 -5 12 23 6 50 -4 39 -14z m-1174 3 c4 -5 -1 -19 -10 -29 -15 -17 -15 -19 2
-23 14 -4 14 -5 -4 -6 -26 -1 -32 24 -8 33 8 3 15 10 15 16 0 6 -4 8 -10 5 -5
-3 -10 -1 -10 4 0 14 17 14 25 0z m362 -36 c-3 -10 -5 -2 -5 17 0 19 2 27 5
18 2 -10 2 -26 0 -35z m234 34 c-1 -4 -3 -7 -6 -7 -40 0 -40 0 -25 10 16 10
32 9 31 -3z m940 -31 c-10 -27 -17 -35 -19 -23 -2 10 1 24 7 31 13 16 4 27
-15 19 -8 -3 -14 0 -14 5 0 6 13 10 29 10 l28 -1 -16 -41z m219 33 c0 -5 -4
-8 -9 -4 -5 3 -12 1 -16 -5 -3 -5 -1 -10 4 -10 14 0 14 -37 0 -46 -6 -3 -16
-1 -22 6 -9 10 -8 12 6 7 11 -4 17 -1 17 8 0 8 -7 15 -15 15 -13 0 -14 4 -5
20 11 21 40 28 40 9z m-1491 -15 c-10 -13 -10 -17 0 -23 9 -6 5 -10 -13 -13
-20 -4 -24 -2 -16 7 6 7 8 19 5 27 -4 9 2 14 16 15 17 2 19 -1 8 -13z m1057
-6 c-3 -13 -6 -29 -6 -35 0 -7 -9 -13 -20 -13 -11 0 -20 4 -20 10 0 5 9 14 20
20 11 6 20 15 20 21 0 6 -4 7 -10 4 -5 -3 -10 -1 -10 4 0 6 7 11 16 11 12 0
15 -6 10 -22z m58 -3 c-4 -15 -2 -25 5 -25 6 0 11 -4 11 -8 0 -5 -13 -9 -30
-9 -16 0 -30 4 -30 9 0 4 5 8 11 8 6 0 9 9 6 19 -3 14 -1 18 9 14 8 -3 14 0
14 6 0 6 2 11 5 11 3 0 3 -11 -1 -25z m319 -7 c-3 -16 -9 -28 -14 -28 -5 0 -6
7 -4 15 3 8 7 22 10 31 8 26 14 12 8 -18z m184 -20 c-2 -13 -4 -5 -4 17 -1 22
1 32 4 23 2 -10 2 -28 0 -40z m274 -31 c-20 -20 -41 1 -41 44 l0 42 26 -38
c17 -25 22 -41 15 -48z m-546 43 c0 -18 -6 -27 -18 -27 -14 -2 -16 1 -8 11 6
8 9 20 6 28 -3 8 0 15 7 15 7 0 13 -12 13 -27z m-1468 14 c-3 -3 -12 -4 -19
-1 -8 3 -5 6 6 6 11 1 17 -2 13 -5z m180 0 c-3 -3 -12 -4 -19 -1 -8 3 -5 6 6
6 11 1 17 -2 13 -5z m417 -10 c10 -25 7 -33 -14 -44 -16 -9 -20 -8 -20 5 0 9
4 14 9 10 5 -3 12 -1 15 4 3 5 -1 12 -10 15 -8 3 -12 10 -9 16 9 15 22 12 29
-6z m923 0 c-3 -3 -12 -4 -19 -1 -8 3 -5 6 6 6 11 1 17 -2 13 -5z m193 -54
c-4 -19 -8 -27 -9 -16 -1 13 -6 16 -18 12 -11 -5 -9 1 7 17 14 12 26 23 27 22
1 0 -2 -16 -7 -35z m-1218 13 c-20 -4 -20 -6 -7 -20 12 -12 13 -18 4 -29 -13
-16 -39 -19 -39 -4 0 5 7 7 15 4 9 -4 15 0 15 10 0 9 -7 16 -15 16 -9 0 -12 6
-9 15 4 9 17 14 33 14 23 -2 24 -2 3 -6z m64 -30 c-3 -4 0 -13 7 -21 10 -13 9
-15 -4 -10 -9 4 -22 1 -28 -5 -8 -8 -11 -8 -11 1 0 7 5 12 10 12 6 0 10 15 10
33 1 27 2 29 11 14 6 -10 8 -21 5 -24z m153 16 c3 -12 2 -12 -11 -1 -25 20
-28 -7 -4 -34 24 -26 38 -14 31 26 -3 14 -2 19 1 12 5 -10 9 -10 20 -1 17 14
19 -2 2 -19 -8 -8 -8 -15 3 -28 12 -16 12 -17 -3 -11 -10 3 -20 2 -24 -4 -4
-6 -11 -6 -20 2 -10 8 -14 8 -14 0 0 -16 -27 -13 -34 4 -10 26 17 79 37 72 6
-2 13 -10 16 -18z m416 -322 c63 -172 115 -322 115 -333 0 -38 -38 -81 -97
-110 -51 -25 -69 -29 -148 -29 -98 0 -161 21 -203 66 l-22 23 -2 -40 c-1 -21
-2 -46 -4 -54 -1 -8 -2 -21 -3 -27 -1 -7 -9 -13 -18 -13 -12 0 -14 3 -7 8 6 4
15 30 19 59 6 45 4 52 -12 56 -15 4 -15 5 4 6 19 1 20 4 11 34 -9 30 -1 59 82
285 51 139 95 251 97 249 2 -2 -30 -96 -71 -208 -41 -112 -74 -205 -72 -206 1
-1 26 10 56 25 47 23 67 27 145 27 77 0 98 -4 148 -27 31 -15 57 -26 57 -25
-2 24 -200 534 -200 517 -1 -22 -2 -23 -9 -5 -6 16 -11 10 -25 -33 -17 -50
-35 -76 -20 -29 27 88 47 129 55 114 5 -9 61 -157 124 -330z m-258 303 c7 -17
7 -32 2 -36 -5 -3 -9 2 -9 10 0 9 -4 16 -10 16 -5 0 -6 7 -3 17 5 12 3 14 -7
8 -9 -5 -11 -4 -6 3 12 19 21 14 33 -18z m-757 -11 c-12 -40 -20 -49 -20 -21
0 26 10 52 20 52 5 0 5 -14 0 -31z m1177 11 c3 -10 2 -11 -4 -4 -4 6 -33 11
-63 10 l-55 -1 -8 -70 c-4 -38 -10 -95 -14 -125 -4 -41 -8 -50 -14 -35 -4 11
-8 34 -8 50 0 25 2 27 8 10 5 -13 11 16 15 83 l8 103 66 -3 c48 -2 66 -7 69
-18z m259 -7 c4 -10 8 -22 8 -27 1 -5 7 -11 14 -13 7 -3 12 5 12 22 0 20 -4
26 -15 21 -8 -3 -15 -1 -15 5 0 24 35 2 38 -24 2 -15 7 -27 12 -27 5 0 7 14 4
30 -6 26 -4 30 15 30 22 0 28 -14 11 -25 -5 -3 -10 -14 -10 -24 0 -13 -9 -20
-30 -23 -17 -3 -33 -2 -35 1 -3 3 -18 5 -33 6 -30 0 -41 27 -22 50 17 20 36
19 46 -2z m-919 1 c-3 -3 -12 -4 -19 -1 -8 3 -5 6 6 6 11 1 17 -2 13 -5z m168
-4 c3 -5 -1 -10 -10 -10 -9 0 -13 5 -10 10 3 6 8 10 10 10 2 0 7 -4 10 -10z
m307 -17 c-3 -16 -7 -23 -9 -16 -2 7 -12 9 -21 6 -14 -5 -13 -2 3 15 27 28 33
27 27 -5z m242 12 c-4 -8 -1 -15 6 -15 6 0 8 -4 5 -10 -3 -5 -1 -10 5 -10 7 0
9 7 6 16 -3 9 -3 21 1 27 13 21 19 -36 9 -75 -10 -38 -32 -50 -42 -24 -3 8 -1
24 5 35 7 13 8 22 1 26 -13 8 -13 45 0 45 5 0 7 -7 4 -15z m98 -7 c-9 -9 -15
-9 -24 0 -9 9 -7 12 12 12 19 0 21 -3 12 -12z m293 2 c-3 -5 -23 -9 -43 -9
l-37 2 40 7 c22 4 41 8 43 9 2 0 0 -3 -3 -9z m-2169 -15 c-3 -9 0 -15 9 -15 7
0 16 8 19 18 3 9 3 -6 1 -35 -4 -57 -21 -97 -36 -88 -13 9 -11 38 5 60 12 17
12 21 -1 30 -12 9 -10 45 4 45 3 0 3 -7 -1 -15z m160 0 c5 -12 10 -13 20 -4 8
6 20 9 28 6 7 -3 18 -1 24 5 11 11 32 3 32 -12 0 -5 -8 -6 -17 -3 -17 7 -17 6
-1 -19 10 -15 14 -29 10 -32 -4 -2 -34 -3 -67 -2 -53 3 -60 6 -63 25 -7 43 21
71 34 36z m189 -15 c-5 -21 -3 -30 6 -30 21 0 0 -14 -26 -17 -14 -2 -25 1 -25
7 0 5 6 9 13 8 8 -2 11 7 9 27 -2 23 0 26 8 15 8 -13 10 -13 10 3 0 9 3 17 6
17 3 0 3 -13 -1 -30z m360 -8 c0 -29 -4 -38 -18 -39 -16 -2 -17 0 -5 14 11 13
11 17 0 21 -10 3 -9 8 4 23 9 10 18 19 19 19 0 0 1 -17 0 -38z m975 28 c0 -3
-6 -12 -12 -18 -10 -10 -10 -15 -1 -20 9 -6 6 -11 -8 -21 -12 -7 -18 -8 -14
-2 3 6 1 11 -5 11 -7 0 -5 7 4 16 9 8 13 20 10 26 -4 6 -10 5 -15 -3 -7 -11
-9 -10 -9 3 0 13 7 17 25 16 14 -1 25 -5 25 -8z m-1054 -15 c-19 -14 -18 -15
5 -24 23 -9 23 -10 2 -10 -12 -1 -25 4 -28 9 -8 13 12 40 29 40 6 0 2 -7 -8
-15z m682 -17 c-7 -4 -45 -8 -85 -8 -66 0 -71 -1 -66 -20 4 -14 0 -20 -10 -20
-10 0 -13 6 -10 20 5 19 -1 20 -133 23 -121 2 -113 3 58 5 167 2 197 4 192 16
-5 12 0 13 30 4 25 -8 32 -14 24 -20z m-1225 15 c-7 -2 -19 -2 -25 0 -7 3 -2
5 12 5 14 0 19 -2 13 -5z m1800 0 c-7 -2 -21 -2 -30 0 -10 3 -4 5 12 5 17 0
24 -2 18 -5z m268 -14 c-2 -8 -4 -21 -3 -29 0 -10 -9 -17 -24 -18 -29 -2 -32
14 -3 23 15 5 19 13 16 27 -4 12 -1 18 6 15 7 -3 10 -11 8 -18z m-2058 -6 c-7
-2 -21 -2 -30 0 -10 3 -4 5 12 5 17 0 24 -2 18 -5z m473 0 c-15 -4 -18 -12
-14 -47 5 -40 4 -42 -18 -38 -27 5 -31 17 -9 26 17 6 21 36 4 36 -5 0 -8 4 -4
9 3 5 -7 12 -22 14 -16 2 -3 4 27 4 30 1 47 -1 36 -4z m-150 -32 c-12 -19 -24
-12 -19 10 4 13 9 17 15 11 6 -6 7 -15 4 -21z m1011 -18 c-3 -10 -5 -2 -5 17
0 19 2 27 5 18 2 -10 2 -26 0 -35z m-663 28 c3 -5 -2 -15 -12 -22 -15 -12 -16
-12 -5 2 7 9 10 19 6 22 -3 4 -4 7 0 7 3 0 8 -4 11 -9z m190 -7 c9 -23 8 -24
-11 -23 -12 0 -13 2 -5 6 10 4 10 8 1 19 -7 8 -7 14 -1 14 5 0 13 -7 16 -16z
m299 -16 c-4 -18 -2 -20 6 -8 16 23 21 8 6 -20 l-13 -25 -7 27 c-4 15 -4 32 0
37 10 17 14 13 8 -11z m650 -18 c-6 -31 -7 -32 -14 -11 -6 14 -4 27 4 36 16
18 18 14 10 -25z m-846 -11 c-2 -23 -7 -29 -24 -29 -13 0 -23 5 -23 10 0 6 6
10 14 10 8 0 17 7 20 16 4 12 2 15 -9 10 -15 -5 -21 5 -9 17 14 14 33 -7 31
-34z m-154 23 c2 7 4 -1 3 -18 -1 -26 -5 -31 -23 -31 -13 0 -23 4 -23 9 0 5 5
6 11 2 8 -5 10 1 7 20 -4 20 -2 24 7 16 9 -8 14 -7 18 2z m213 -24 c-1 -22 -6
-28 -23 -28 -13 0 -23 5 -23 10 0 6 6 9 13 8 7 -2 11 5 9 18 -2 12 3 21 11 21
9 0 14 -11 13 -29z m574 26 c-37 -8 -88 -9 -84 -2 3 4 26 7 52 7 26 -1 40 -3
32 -5z m-480 -14 c0 -5 -4 -10 -10 -10 -5 0 -10 5 -10 10 0 6 5 10 10 10 6 0
10 -4 10 -10z m850 -71 c-8 -4 -17 -4 -20 -1 -3 2 1 7 8 9 6 3 12 11 12 19 0
9 -5 12 -11 9 -6 -4 -5 3 3 14 13 21 13 21 18 -11 4 -24 1 -35 -10 -39z
m-1067 54 c-7 -2 -19 -2 -25 0 -7 3 -2 5 12 5 14 0 19 -2 13 -5z m687 -2 c0
-5 -9 -7 -20 -4 -24 6 -26 -5 -3 -22 19 -14 12 -42 -12 -52 -9 -3 -22 0 -28 7
-9 9 -9 11 0 6 16 -9 43 4 43 21 0 10 -7 14 -20 10 -23 -6 -24 -3 -10 24 11
19 50 27 50 10z m318 -2 c-10 -5 -18 -14 -18 -19 0 -5 8 -11 18 -13 16 -4 16
-5 -1 -6 -22 -1 -34 28 -16 40 8 5 19 9 24 9 6 -1 2 -5 -7 -11z m-1263 -27
c-3 -9 -1 -19 6 -22 6 -4 -1 -7 -16 -7 -17 0 -22 2 -15 7 7 4 10 14 7 22 -3 9
1 15 9 15 9 0 13 -6 9 -15z m692 -19 c-3 -10 -5 -4 -5 12 0 17 2 24 5 18 2 -7
2 -21 0 -30z m-1262 8 c-4 -13 0 -20 15 -24 29 -8 26 -37 -5 -37 -20 0 -25 5
-25 24 0 26 9 56 17 56 2 0 2 -8 -2 -19z m1124 -26 c-11 -30 -11 -38 0 -44 10
-7 9 -10 -3 -14 -12 -5 -16 0 -16 23 0 33 18 86 26 77 3 -3 0 -22 -7 -42z
m646 38 c-11 -3 -26 -10 -32 -15 -9 -7 -13 -7 -13 0 0 6 -12 13 -27 15 -16 2
-1 4 32 4 33 1 51 -2 40 -4z m-1375 -13 c0 -5 -7 -10 -15 -10 -8 0 -15 -7 -15
-15 0 -23 16 -18 39 11 24 30 56 27 46 -5 -4 -12 0 -21 11 -25 23 -9 30 0 14
19 -9 11 -10 19 -2 27 12 12 32 3 32 -15 0 -7 -4 -6 -11 3 -8 11 -9 7 -4 -17
6 -29 4 -33 -14 -33 -11 0 -23 5 -26 10 -5 8 -11 8 -20 0 -10 -8 -15 -8 -20 0
-4 6 -15 8 -26 5 -21 -7 -35 15 -25 40 6 17 36 21 36 5z m-172 -17 c-1 -10 1
-24 5 -30 5 -7 4 -13 -2 -13 -16 0 -23 18 -16 40 8 25 17 26 13 3z m45 -33 c6
0 4 -6 -5 -12 -9 -7 -18 -25 -22 -40 -4 -16 -13 -28 -21 -28 -20 0 -19 29 2
53 10 10 18 24 19 30 4 44 7 51 11 25 2 -16 9 -28 16 -28z m1485 22 c-1 -15 1
-33 6 -40 4 -7 2 -12 -3 -12 -6 0 -11 4 -11 10 0 5 -7 7 -15 4 -8 -4 -15 -1
-15 5 0 7 7 14 15 17 8 4 15 15 15 25 0 10 2 19 5 19 3 0 4 -13 3 -28z m204
-4 c-8 -8 -9 -4 -5 13 4 13 8 18 11 10 2 -7 -1 -18 -6 -23z m-2056 14 c6 -4
13 -15 17 -24 5 -14 1 -18 -16 -20 -12 -1 14 -4 58 -8 101 -8 137 -3 130 19
-6 21 10 46 24 37 12 -8 15 -27 4 -23 -5 1 -8 -2 -8 -8 0 -5 4 -9 8 -7 5 1 6
-2 3 -7 -4 -5 0 -11 6 -14 24 -8 -63 -20 -110 -14 -26 2 -39 3 -29 0 12 -3 17
-12 15 -26 -1 -12 1 -27 4 -33 5 -7 -3 -11 -22 -12 -34 -1 -41 17 -10 25 11 3
20 12 20 20 0 8 -4 12 -9 9 -5 -3 -11 1 -14 8 -3 8 -18 14 -34 14 -51 -1 -98
4 -86 8 7 3 9 12 6 20 -12 32 15 55 43 36z m429 -2 c-3 -5 -15 -10 -26 -10
-10 0 -19 5 -19 10 0 6 12 10 26 10 14 0 23 -4 19 -10z m673 -36 c20 -14 8
-47 -15 -42 -10 2 -18 9 -17 16 1 6 2 24 3 40 2 17 5 21 8 12 4 -8 13 -20 21
-26z m-1318 9 c0 -14 -2 -15 -9 -4 -6 9 -11 10 -15 2 -10 -16 2 -30 24 -28 13
1 20 8 20 23 0 17 4 21 20 17 26 -7 27 -49 1 -56 -12 -3 -21 -16 -24 -33 -3
-25 -4 -24 -6 8 -1 31 -4 35 -21 31 -24 -6 -37 21 -20 42 17 20 30 19 30 -2z
m280 13 c0 -3 -4 -8 -10 -11 -5 -3 -10 -1 -10 4 0 6 5 11 10 11 6 0 10 -2 10
-4z m618 -13 c-10 -3 -15 -10 -11 -20 3 -8 0 -19 -8 -24 -11 -7 -10 -9 4 -9
10 0 16 -4 13 -9 -3 -5 -15 -7 -26 -4 -19 5 -19 7 -6 22 16 18 11 34 -14 44
-8 3 3 5 25 5 22 0 32 -2 23 -5z m318 -28 c-1 -19 -6 -23 -30 -22 -34 2 -43
18 -22 40 22 22 54 11 52 -18z m410 -5 c9 0 14 -10 13 -27 -2 -27 -2 -27 -6
-3 l-5 24 -14 -24 c-13 -24 -13 -22 -12 25 0 28 3 40 5 28 2 -13 11 -23 19
-23z m-689 8 c-3 -8 -6 -5 -6 6 -1 11 2 17 5 13 3 -3 4 -12 1 -19z m473 11 c0
-5 -4 -7 -10 -4 -5 3 -10 0 -10 -9 0 -8 6 -17 13 -19 7 -3 5 -6 -5 -6 -10 -1
-18 4 -18 9 0 6 -7 10 -16 10 -8 0 -12 5 -9 10 4 6 11 8 16 5 5 -4 9 -1 9 4 0
6 7 11 15 11 8 0 15 -5 15 -11z m167 -26 c-3 -10 -5 -4 -5 12 0 17 2 24 5 18
2 -7 2 -21 0 -30z m367 28 c3 -5 -15 -6 -40 -3 -54 6 -64 -4 -64 -65 l0 -43
49 0 c51 0 72 -13 52 -33 -8 -8 -11 -8 -11 1 0 7 -13 12 -29 12 -28 0 -30 -3
-37 -45 -7 -52 -24 -70 -24 -26 0 16 5 33 10 36 12 8 13 45 1 45 -13 0 -21
-26 -21 -70 0 -41 -14 -61 -24 -34 -3 9 -5 28 -5 42 1 27 1 27 8 -3 5 -22 9
-3 15 68 4 55 10 105 13 113 6 16 98 20 107 5z m-1824 -10 c0 -5 -7 -11 -15
-15 -9 -3 -15 0 -15 9 0 8 7 15 15 15 8 0 15 -4 15 -9z m886 -3 c4 -7 3 -8 -5
-4 -11 7 -28 -20 -18 -30 9 -9 47 16 47 30 0 9 7 12 20 9 26 -7 26 -43 1 -50
-12 -3 -22 -16 -24 -32 -4 -24 -4 -23 -6 6 -1 26 -4 30 -21 26 -12 -3 -22 1
-26 11 -12 32 15 62 32 34z m901 -38 c-3 -15 -1 -33 6 -40 10 -10 8 -12 -6 -6
-10 3 -25 6 -33 6 -21 0 -17 17 6 23 11 3 20 13 20 22 0 9 -4 13 -10 10 -11
-7 -14 8 -4 18 14 13 26 -6 21 -33z m678 6 c-17 -26 -17 -87 -1 -131 8 -20 7
-20 -8 -1 -21 25 -21 98 0 137 8 17 18 29 21 26 2 -3 -3 -17 -12 -31z m-2641
-62 c-1 -32 -7 -52 -23 -67 l-21 -22 20 40 c25 48 25 52 0 100 l-20 40 22 -23
c18 -17 23 -33 22 -68z m2710 46 c-6 -25 -9 -29 -16 -16 -5 10 -5 24 2 37 16
28 22 19 14 -21z m-1536 18 c-6 -18 -28 -21 -28 -4 0 9 7 16 16 16 9 0 14 -5
12 -12z m252 -17 l-65 -6 0 -32 c0 -25 -5 -33 -23 -36 -28 -5 -40 11 -15 20
56 21 24 51 -58 56 -35 2 1 3 81 3 93 0 122 -2 80 -5z m1004 -30 c7 -25 6 -35
-5 -42 -19 -12 -39 -11 -39 1 0 5 7 7 15 4 19 -8 33 25 15 36 -7 4 -10 13 -6
19 5 7 1 8 -10 4 -12 -4 -15 -3 -10 6 12 19 30 7 40 -28z m164 21 c2 -7 -2
-10 -12 -6 -20 8 -20 0 0 -31 14 -22 14 -25 1 -31 -8 -3 -37 -4 -64 -1 -44 3
-48 6 -51 31 -4 30 12 55 25 41 5 -4 2 -10 -4 -12 -15 -5 -18 -43 -4 -43 5 0
12 14 16 31 9 41 39 36 43 -9 2 -20 9 -32 18 -32 17 0 19 21 3 37 -14 14 -4
46 13 41 6 -2 14 -10 16 -16z m-349 -9 c-3 -34 2 -38 16 -13 14 23 15 21 9
-40 -7 -73 -9 -80 -30 -80 -25 0 -28 30 -5 61 12 16 17 29 12 29 -13 0 -22 27
-15 45 8 20 16 19 13 -2z m-2299 -47 c-8 -8 -9 -6 -4 8 5 13 4 17 -4 12 -16
-10 -15 7 1 23 10 10 13 8 15 -10 2 -12 -1 -26 -8 -33z m835 44 c4 -6 -4 -9
-17 -7 -23 2 -23 1 -21 -90 2 -83 1 -93 -15 -92 -10 0 -12 3 -5 6 10 3 11 23
7 73 -8 84 0 120 26 120 10 0 22 -4 25 -10z m213 -8 c2 -8 -3 -10 -14 -5 -15
6 -16 1 -10 -38 17 -109 18 -127 6 -134 -6 -4 -14 -4 -18 0 -3 3 -1 10 6 14
10 6 10 22 1 79 -6 39 -9 78 -5 87 7 18 27 16 34 -3z m639 -19 c-3 -10 -5 -4
-5 12 0 17 2 24 5 18 2 -7 2 -21 0 -30z m-1734 1 c-4 -12 -8 -13 -14 -3 -9 15
-2 32 11 24 5 -3 6 -13 3 -21z m745 -42 c4 -46 -12 -102 -25 -88 -3 3 0 12 7
21 13 15 10 84 -5 120 -6 16 -5 18 5 8 7 -6 15 -34 18 -61z m1405 1 c2 -29 0
-53 -4 -53 -5 0 -9 28 -8 63 1 71 5 67 12 -10z m85 60 c-10 -2 -26 -2 -35 0
-10 3 -2 5 17 5 19 0 27 -2 18 -5z m49 -85 c-2 -18 -4 -4 -4 32 0 36 2 50 4
33 2 -18 2 -48 0 -65z m-1758 26 c-18 -39 -20 -54 -11 -76 6 -15 7 -28 2 -28
-17 0 -20 57 -6 98 18 49 26 65 32 59 2 -2 -5 -26 -17 -53z m73 25 c-9 -32
-30 -36 -24 -4 2 14 8 22 13 19 5 -3 9 0 9 7 0 7 2 10 5 8 2 -3 1 -16 -3 -30z
m210 9 c-15 -15 -16 -92 -2 -119 6 -11 7 -19 1 -19 -14 0 -21 27 -21 76 0 45
16 91 28 80 3 -4 0 -12 -6 -18z m473 -58 c0 -45 -5 -64 -19 -77 -18 -18 -18
-17 -1 16 17 34 17 80 0 126 -7 17 -6 18 6 7 9 -8 14 -34 14 -72z m1158 73
c-7 -2 -19 -2 -25 0 -7 3 -2 5 12 5 14 0 19 -2 13 -5z m-1552 -12 c-12 -8 -12
-12 -2 -25 7 -8 10 -19 7 -25 -3 -5 0 -12 6 -14 7 -3 0 -6 -16 -6 -22 -1 -27
2 -19 10 6 6 9 18 6 25 -7 19 4 44 19 44 10 0 9 -3 -1 -9z m259 -19 c0 -15 -2
-15 -10 -2 -5 8 -10 10 -10 5 0 -6 5 -16 12 -23 9 -9 6 -12 -14 -12 -26 0 -26
0 -11 30 15 31 33 32 33 2z m1676 19 c-18 -7 -66 -3 -66 5 0 2 19 4 43 3 30 0
36 -3 23 -8z m-2392 -8 c4 -5 19 -8 33 -8 15 0 28 -7 30 -15 4 -13 3 -13 -6 0
-5 8 -13 11 -17 7 -4 -4 -2 -13 4 -19 7 -7 12 -21 12 -31 0 -15 -5 -18 -22
-12 -13 4 -33 6 -45 6 -12 0 -25 4 -28 9 -4 7 -13 6 -27 -1 -25 -14 -41 0 -36
32 2 16 11 25 26 27 12 2 22 -1 22 -6 0 -6 -9 -8 -20 -5 -15 4 -20 0 -20 -14
0 -11 3 -23 6 -26 10 -9 44 12 44 26 0 14 19 37 30 37 4 0 10 -3 14 -7z m803
-15 c-3 -8 -6 -5 -6 6 -1 11 2 17 5 13 3 -3 4 -12 1 -19z m1200 16 c-3 -3 -12
-4 -19 -1 -8 3 -5 6 6 6 11 1 17 -2 13 -5z m-2240 -19 c-9 -21 10 -29 21 -9 8
14 10 12 14 -9 3 -14 1 -32 -3 -39 -5 -7 -9 -23 -9 -35 0 -13 -6 -23 -14 -23
-26 0 -29 21 -7 51 25 33 26 40 7 33 -8 -3 -17 -1 -20 4 -6 10 2 42 11 42 3 0
3 -7 0 -15z m780 -7 c-3 -8 -6 -5 -6 6 -1 11 2 17 5 13 3 -3 4 -12 1 -19z
m1241 15 c-10 -2 -18 -12 -18 -21 0 -9 -5 -24 -10 -32 -8 -11 -10 -6 -6 20 2
19 5 36 5 38 1 1 11 1 24 1 16 -1 18 -2 5 -6z m593 -2 c7 11 9 11 9 -2 0 -9
-8 -20 -17 -24 -17 -7 -16 -8 2 -15 19 -8 19 -9 -2 -9 -14 -1 -23 5 -23 14 0
8 4 15 10 15 5 0 8 6 6 13 -1 6 -1 8 2 3 2 -4 8 -2 13 5z m-2511 -16 c0 -8 -8
-15 -18 -15 -10 0 -19 7 -19 15 0 8 9 15 19 15 10 0 18 -7 18 -15z m367 -27
c-17 -11 -28 1 -14 16 8 10 14 11 19 3 4 -6 2 -15 -5 -19z m48 -5 c-7 -25 -8
-26 -15 -8 -4 11 -3 26 3 33 15 18 20 7 12 -25z m687 -13 c2 -27 -1 -35 -16
-38 -10 -2 -23 1 -29 7 -9 9 -5 11 12 9 13 -2 26 3 28 10 3 6 -3 12 -13 12
-14 0 -15 3 -6 12 7 7 12 17 12 23 0 5 -5 3 -10 -5 -5 -8 -10 -10 -10 -4 0 16
12 26 21 17 5 -5 10 -24 11 -43z m669 31 c-10 -7 -9 -10 3 -14 19 -7 21 -38 4
-55 -14 -14 -38 -16 -38 -3 0 5 8 8 18 7 11 -1 17 6 17 19 0 13 -6 19 -17 17
-13 -2 -16 2 -11 15 7 20 25 35 32 27 3 -3 0 -9 -8 -13z m-1119 -19 c-4 -18
-2 -23 8 -17 8 5 11 3 8 -5 -2 -8 -14 -14 -27 -15 -15 -1 -20 3 -16 12 3 8 5
23 5 32 0 10 6 18 13 18 9 0 12 -9 9 -25z m-344 11 c-11 -3 -15 -10 -11 -20 4
-9 -1 -21 -12 -29 -18 -14 -18 -14 1 -15 10 0 14 -3 7 -5 -7 -3 -20 -1 -30 5
-17 10 -16 11 5 17 12 3 22 11 22 16 0 5 -4 6 -10 3 -5 -3 -10 1 -10 9 0 8 -8
17 -17 19 -10 3 2 5 27 5 25 0 37 -2 28 -5z m426 -14 c-3 -5 -10 -7 -15 -3 -5
3 -7 10 -3 15 3 5 10 7 15 3 5 -3 7 -10 3 -15z m147 4 c0 -15 2 -15 8 2 8 19
9 18 12 -5 6 -38 -2 -100 -12 -100 -16 0 -23 31 -12 49 7 12 6 20 -3 29 -16
15 -19 42 -4 42 6 0 10 -8 11 -17z m153 -4 c-3 -5 -10 -7 -15 -3 -5 3 -7 10
-3 15 3 5 10 7 15 3 5 -3 7 -10 3 -15z m403 -16 c-3 -10 -5 -4 -5 12 0 17 2
24 5 18 2 -7 2 -21 0 -30z m-593 16 c-4 -7 -44 0 -44 7 0 2 11 3 24 2 14 -1
23 -5 20 -9z m1099 -9 c-3 -11 -7 -20 -9 -20 -2 0 -4 9 -4 20 0 11 4 20 9 20
5 0 7 -9 4 -20z m197 -20 c0 -19 -5 -30 -14 -30 -17 0 -28 -27 -21 -49 3 -12
-2 -16 -20 -17 -27 -2 -34 10 -11 19 9 4 12 14 9 28 -4 15 -3 20 5 15 7 -4 15
0 18 8 3 9 10 13 15 10 5 -3 9 -1 9 5 0 5 -5 13 -10 16 -12 7 -4 25 11 25 5 0
9 -13 9 -30z m-1540 -6 c6 -14 8 -30 4 -35 -7 -12 -34 -11 -34 2 0 5 4 8 9 4
5 -3 12 -1 16 5 3 5 2 10 -4 10 -6 0 -7 7 -4 17 4 11 3 14 -5 9 -7 -4 -12 -2
-12 3 0 21 21 11 30 -15z m235 -1 c-2 -27 -18 -31 -20 -5 -1 12 4 22 10 22 6
0 11 -8 10 -17z m-848 -80 c4 -45 1 -69 -12 -97 -10 -20 -19 -35 -21 -33 -3 2
2 17 11 33 19 37 19 105 0 152 -15 34 -15 36 0 21 10 -10 19 -40 22 -76z
m-257 42 c-16 -19 -16 -131 1 -151 8 -10 8 -14 0 -14 -25 0 -35 126 -12 168 7
13 15 21 18 18 3 -3 0 -12 -7 -21z m2302 18 c-22 -4 -22 -6 -6 -17 21 -16 12
-46 -13 -46 -17 1 -17 1 0 11 9 6 15 15 12 20 -4 5 -11 7 -16 4 -10 -7 -13 18
-2 28 3 4 16 6 27 6 19 -2 18 -2 -2 -6z m-2157 -13 c3 -5 1 -18 -5 -29 -8 -16
-6 -22 7 -31 16 -10 15 -11 -4 -7 -13 3 -26 1 -29 -4 -3 -5 21 -10 53 -10 51
-1 54 -2 23 -9 -23 -5 -27 -8 -12 -9 43 -2 22 -16 -25 -16 l-48 0 -3 -52 c-3
-52 -14 -68 -26 -37 -3 9 -6 23 -5 32 0 14 2 13 9 -3 7 -16 9 -13 9 17 1 21 9
44 19 54 16 17 16 17 -5 12 -13 -3 -23 -2 -23 3 0 5 5 9 10 9 6 0 10 9 10 20
0 11 6 20 14 20 7 0 16 10 19 23 6 21 6 21 -8 3 -12 -15 -15 -16 -15 -5 0 27
23 39 35 19z m2375 0 c0 -5 -7 -7 -15 -4 -20 8 -19 -6 5 -36 17 -22 19 -23 25
-7 4 9 5 23 2 31 -4 10 0 14 11 13 12 -1 17 -10 18 -31 0 -30 -1 -31 -48 -32
-46 -2 -48 -1 -48 25 0 15 5 32 12 39 14 14 38 16 38 2z m163 -25 c8 -23 6
-31 -8 -41 -15 -11 -14 -13 12 -17 15 -2 -75 -4 -202 -3 -229 1 -229 1 -38 3
154 3 191 6 187 17 -3 8 2 12 13 12 10 -1 18 4 18 9 0 6 -3 9 -7 8 -5 -2 -8 9
-8 23 0 33 21 27 33 -11z m-2368 2 c11 -11 10 -16 -7 -26 -11 -7 -17 -19 -14
-27 3 -8 1 -14 -3 -14 -15 0 -18 23 -7 52 12 32 13 33 31 15z m1755 5 c0 -4
-7 -18 -16 -30 -21 -30 -10 -41 16 -17 18 17 20 17 14 2 -3 -9 -2 -17 4 -17 5
0 12 7 16 15 8 22 73 17 79 -7 3 -10 1 -18 -4 -18 -5 0 -9 8 -9 18 -1 15 -2
15 -15 -2 -13 -17 -15 -18 -15 -3 0 9 -4 17 -10 17 -5 0 -10 -7 -10 -16 0 -8
-4 -13 -9 -9 -5 3 -12 1 -16 -5 -8 -12 -55 -2 -73 16 -10 10 -10 14 1 21 7 4
16 16 20 26 6 17 27 24 27 9z m-1483 -52 c-2 -58 -13 -66 -19 -15 -2 19 0 35
4 35 4 0 8 7 8 15 0 8 2 15 4 15 3 0 4 -22 3 -50z m694 18 c-3 -18 -7 -25 -9
-16 -2 11 -9 15 -20 11 -10 -4 -7 3 8 15 14 12 25 21 26 22 0 0 -2 -15 -5 -32z
m1162 25 c-7 -2 -19 -2 -25 0 -7 3 -2 5 12 5 14 0 19 -2 13 -5z m-1044 -35 c0
-18 -3 -27 -6 -20 -2 6 -9 10 -14 6 -13 -7 -11 3 3 26 17 27 18 26 17 -12z
m1208 26 c-3 -3 -12 -4 -19 -1 -8 3 -5 6 6 6 11 1 17 -2 13 -5z m183 -4 c13
-8 13 -10 -2 -10 -11 0 -21 -12 -27 -32 -10 -37 -15 -8 -5 30 7 24 12 26 34
12z m-2759 -47 c-4 -27 -6 -31 -9 -15 -2 12 -8 22 -14 22 -6 0 -6 6 2 15 20
24 26 18 21 -22z m307 14 c16 29 78 30 85 1 3 -10 1 -18 -4 -18 -5 0 -9 8 -9
18 -1 15 -2 15 -15 -2 -15 -20 -15 -20 -15 0 -1 17 -2 17 -13 3 -19 -25 -53
-33 -61 -13 -3 9 -3 21 1 27 4 7 9 2 13 -13 l6 -25 12 22z m400 16 c-21 -5
-23 -14 -7 -30 16 -16 3 -43 -21 -43 -11 0 -20 4 -20 9 0 5 8 8 18 7 9 0 17 6
17 14 0 8 -6 14 -12 13 -15 -3 -15 -1 -7 21 3 9 16 15 28 15 16 -1 17 -2 4 -6z
m-253 -40 c-4 -18 -2 -23 6 -17 7 4 9 3 6 -4 -4 -5 -17 -8 -29 -4 -12 3 -17 7
-10 10 7 2 10 13 6 28 -5 20 -3 23 11 18 12 -5 15 -14 10 -31z m315 27 c5 8 8
-3 7 -25 -1 -21 -3 -33 -5 -27 -2 8 -9 9 -22 2 -13 -7 -21 -7 -25 0 -3 5 3 10
15 10 17 0 19 5 15 28 -3 15 -2 21 1 13 5 -10 8 -11 14 -1z m305 0 c5 -8 11
-7 20 0 19 16 35 4 35 -25 0 -13 5 -27 11 -31 8 -4 9 3 4 25 -5 24 -3 32 10
37 22 9 32 -3 15 -19 -10 -9 -11 -9 -6 1 4 6 2 12 -3 12 -14 0 -14 -27 -1 -35
5 -3 7 -12 4 -19 -6 -17 -74 -19 -74 -3 0 7 -4 7 -12 -1 -29 -29 -59 8 -38 48
12 22 25 26 35 10z m-562 -7 c-19 -7 -16 -33 5 -33 14 0 15 -2 2 -10 -10 -6
-19 -5 -28 4 -16 16 -5 46 17 45 10 0 11 -2 4 -6z m103 -7 c8 -20 -15 -126
-27 -126 -18 0 -22 34 -7 60 13 23 13 28 1 36 -17 11 -7 44 13 44 8 0 17 -6
20 -14z m268 -1 c-8 -21 13 -19 25 3 9 15 11 14 12 -8 4 -63 -13 -112 -36
-104 -20 8 -19 38 2 55 15 13 15 12 4 -9 -7 -13 -10 -26 -7 -30 9 -9 16 3 20
35 4 26 1 30 -15 26 -14 -4 -19 0 -19 14 0 11 3 23 7 26 10 11 13 8 7 -8z
m109 -12 c-7 -2 -21 -2 -30 0 -10 3 -4 5 12 5 17 0 24 -2 18 -5z m270 0 c-13
-2 -33 -2 -45 0 -13 2 -3 4 22 4 25 0 35 -2 23 -4z m1527 -12 c0 -27 -17 -35
-23 -11 -5 19 0 30 15 30 4 0 8 -9 8 -19z m-1402 2 c-9 -2 -15 -10 -12 -17 3
-7 -2 -19 -11 -26 -13 -11 -13 -15 -3 -21 9 -6 6 -9 -9 -9 -26 0 -31 18 -8 26
25 10 12 39 -20 45 -22 5 -15 6 25 7 30 0 47 -2 38 -5z m926 -9 c8 -20 -1 -34
-20 -34 -17 0 -19 16 -3 26 8 4 7 9 -2 15 -11 7 -11 9 2 9 9 0 20 -7 23 -16z
m204 4 c-2 -6 -10 -13 -16 -14 -9 -2 -9 -1 -1 3 8 4 7 8 -2 14 -11 7 -10 9 4
9 10 0 17 -5 15 -12z m-2493 -17 c-3 -6 -11 -11 -17 -11 -6 0 -6 6 2 15 14 17
26 13 15 -4z m968 12 c-7 -2 -21 -2 -30 0 -10 3 -4 5 12 5 17 0 24 -2 18 -5z
m269 -14 c-2 -8 -4 -21 -5 -29 0 -10 -11 -17 -26 -18 l-26 -2 23 18 c16 13 21
23 16 36 -5 14 -3 17 7 14 8 -3 13 -12 11 -19z m1345 0 c-5 -17 -3 -18 11 -7
14 11 15 10 9 -5 -4 -10 -7 -23 -7 -29 0 -5 -7 -2 -16 6 -9 10 -13 24 -9 36 8
26 19 26 12 -1z m-2477 2 c-21 -6 -22 -8 -7 -14 22 -8 22 -53 0 -61 -9 -4 -21
-2 -27 5 -8 8 -6 10 9 7 15 -2 21 3 23 21 3 18 0 22 -12 18 -10 -4 -16 -1 -16
7 0 18 10 26 34 25 18 -1 17 -2 -4 -8z m682 -13 c-7 -7 -12 -8 -12 -2 0 14 12
26 19 19 2 -3 -1 -11 -7 -17z m1193 -5 c0 -18 -6 -23 -25 -23 -18 0 -21 3 -11
9 8 5 12 15 9 23 -4 8 1 14 11 14 10 0 16 -9 16 -23z m-1729 -8 c1 -18 -3 -25
-16 -25 -16 0 -17 3 -7 25 15 32 22 32 23 0z m131 9 c8 -21 -23 -52 -38 -37
-8 8 -8 17 0 32 14 25 29 27 38 5z m1678 7 c9 -15 -12 -22 -42 -14 l-28 7 25
7 c36 10 38 10 45 0z m60 -1 c3 -5 12 -10 18 -10 7 0 6 4 -3 10 -13 8 -12 10
3 10 12 0 17 -6 15 -17 -2 -10 -9 -18 -16 -17 -6 1 -23 2 -37 3 -15 0 -25 7
-25 16 0 17 35 21 45 5z m111 -3 c14 16 14 16 4 -6 -9 -18 -9 -25 0 -31 19
-11 -2 -18 -30 -9 -14 4 -18 7 -9 8 12 1 15 9 13 29 -2 15 -1 19 2 9 6 -18 6
-18 20 0z m151 -20 c-1 -25 -7 -33 -19 -32 -28 2 -34 15 -10 22 12 3 22 12 22
20 0 8 -4 11 -10 8 -5 -3 -10 -1 -10 4 0 6 7 11 15 11 11 0 14 -9 12 -33z m54
24 c6 10 8 3 7 -18 -2 -28 -6 -33 -28 -32 -18 1 -20 3 -7 6 14 4 17 11 13 31
-3 15 -3 21 1 13 5 -11 7 -11 14 0z m104 -11 c3 -5 -1 -10 -10 -10 -9 0 -13 5
-10 10 3 6 8 10 10 10 2 0 7 -4 10 -10z m-2225 -10 c0 -5 -11 -10 -25 -10 -14
0 -25 5 -25 10 0 6 11 10 25 10 14 0 25 -4 25 -10z m2003 -7 c-7 -2 -19 -2
-25 0 -7 3 -2 5 12 5 14 0 19 -2 13 -5z m-1689 -29 c5 -14 4 -15 -9 -4 -13 11
-14 10 -9 -4 3 -9 1 -16 -5 -16 -6 0 -11 -10 -11 -22 0 -21 0 -21 22 -2 19 17
21 17 15 2 -9 -24 10 -23 25 1 8 14 17 17 32 11 12 -4 27 -5 34 -3 6 3 12 -2
12 -10 0 -9 6 -18 13 -20 7 -3 5 -6 -5 -6 -11 -1 -18 6 -18 17 -1 15 -2 15
-15 -2 -15 -20 -15 -20 -15 0 -1 19 -1 19 -15 0 -9 -12 -15 -15 -15 -7 0 9 -4
10 -12 4 -7 -5 -25 -10 -39 -11 -34 -2 -45 30 -22 64 18 28 28 30 37 8z m526
-5 c0 -5 -4 -8 -9 -5 -5 4 -11 -19 -13 -49 -2 -42 0 -55 12 -59 8 -2 4 -4 -9
-5 -20 -1 -22 3 -17 22 3 12 6 41 6 65 0 31 4 42 15 42 8 0 15 -5 15 -11z
m-337 -41 c-8 -23 -12 -50 -10 -60 3 -10 1 -18 -4 -18 -5 0 -9 10 -9 23 0 32
20 97 29 97 5 0 2 -19 -6 -42z m275 17 c18 -39 15 -73 -7 -85 -30 -15 -38 -12
-13 6 26 18 28 50 6 82 -8 12 -11 22 -6 22 5 0 14 -11 20 -25z m96 -15 c-5
-27 -3 -40 5 -40 6 0 14 7 17 15 7 18 54 20 54 3 0 -7 -5 -20 -11 -28 -9 -13
-10 -12 -5 3 3 9 1 17 -4 17 -5 0 -14 -8 -19 -17 -7 -12 -10 -14 -11 -4 0 11
-3 11 -15 1 -9 -7 -18 -10 -21 -7 -8 8 -8 73 1 86 12 21 15 11 9 -29z m946 26
c0 -7 -7 -19 -15 -26 -17 -14 -20 -40 -5 -40 5 0 14 8 19 18 10 16 10 16 11
-2 0 -17 2 -18 18 -4 9 8 33 14 52 13 28 -1 34 -5 32 -19 -2 -12 1 -16 9 -10
8 4 10 3 5 -4 -10 -17 -26 -15 -26 4 0 14 -3 14 -15 4 -12 -10 -15 -9 -15 6
-1 17 -2 17 -13 4 -7 -9 -30 -16 -54 -17 -48 -2 -58 14 -35 60 14 29 32 36 32
13z m528 -14 c-14 -3 -18 -14 -18 -53 0 -27 5 -49 10 -49 6 0 10 -5 10 -10 0
-7 -6 -8 -17 -1 -13 7 -16 21 -14 62 3 64 6 70 29 61 16 -6 16 -7 0 -10z
m-2434 -9 c-4 -10 -9 -34 -10 -53 -4 -55 -6 -57 -14 -21 -9 36 5 91 22 91 6 0
7 -7 2 -17z m651 -8 c0 -10 -7 -20 -15 -23 -12 -4 -13 -2 -2 9 17 18 15 34 -3
19 -15 -12 -22 0 -8 14 12 11 28 0 28 -19z m1456 1 c-6 -7 -12 -35 -13 -61 0
-30 -4 -42 -9 -34 -14 23 12 131 28 115 3 -3 1 -12 -6 -20z m269 0 c24 -46 11
-96 -25 -96 -5 1 -2 5 8 11 21 12 22 57 1 87 -8 12 -11 22 -6 22 5 0 14 -11
22 -24z m-2477 -45 c0 -32 -18 -61 -37 -61 -6 0 -3 5 7 11 20 11 23 59 6 92
-11 21 -10 21 6 5 10 -9 18 -31 18 -47z m345 -4 c3 -50 1 -57 -15 -56 -10 0
-13 3 -5 6 7 3 12 24 12 54 0 29 -4 48 -9 44 -5 -3 -13 0 -16 6 -5 7 0 10 11
7 16 -3 20 -14 22 -61z m464 54 c6 10 7 7 3 -10 -5 -15 -2 -27 6 -32 9 -6 2
-9 -21 -9 -27 1 -31 3 -18 10 10 6 15 19 12 32 -2 13 -1 17 2 9 5 -11 8 -11
16 0z m124 -15 c0 -13 -7 -29 -15 -37 -12 -11 -13 -8 -8 20 6 27 4 32 -8 27
-8 -3 -15 -1 -15 4 0 6 11 10 24 10 19 0 24 -5 22 -24z m270 12 c4 -6 -2 -19
-15 -29 -19 -16 -20 -18 -4 -22 14 -4 13 -5 -4 -6 -29 -1 -30 15 -3 29 11 6
18 16 14 22 -4 7 -9 6 -15 -3 -5 -8 -9 -9 -9 -3 0 23 24 32 36 12z m513 -30
c-15 -30 -20 -53 -16 -85 2 -23 1 -40 -4 -37 -16 10 -9 84 11 124 11 22 23 40
25 40 3 0 -4 -19 -16 -42z m71 22 c-6 -11 -9 -24 -6 -28 2 -4 -5 -8 -17 -9
-12 0 -17 1 -11 3 7 3 10 15 7 27 -3 16 -2 18 5 9 7 -11 10 -11 15 2 4 9 9 16
12 16 3 0 1 -9 -5 -20z m140 -21 c11 -41 0 -101 -21 -114 -13 -8 -11 -3 8 35
15 31 15 38 1 77 -9 24 -12 43 -7 43 4 0 13 -18 19 -41z m-669 13 c-7 -13 -7
-22 0 -29 7 -7 2 -10 -15 -10 -14 0 -26 4 -26 9 0 5 5 6 10 3 6 -3 10 3 10 14
0 16 8 25 28 30 1 1 -2 -7 -7 -17z m1009 -8 c0 -8 -7 -17 -15 -20 -21 -8 -19
-25 3 -18 15 5 15 4 -1 -6 -13 -8 -22 -9 -29 -2 -7 7 -4 15 11 24 25 15 28 33
5 24 -14 -5 -15 -4 -4 9 14 17 30 11 30 -11z m179 0 c-6 -7 -9 -17 -6 -21 3
-4 -1 -13 -8 -20 -10 -10 -14 -9 -19 2 -3 8 -1 15 4 15 6 0 10 5 10 10 0 6 -7
10 -15 10 -8 0 -15 4 -15 8 0 5 13 9 30 9 23 0 27 -3 19 -13z m-2492 -17 c14
17 14 17 9 0 -3 -10 -6 -25 -6 -33 0 -8 -5 -14 -11 -14 -5 0 -8 4 -5 9 3 5 0
11 -8 14 -10 4 -12 13 -8 29 l7 23 3 -23 c3 -23 4 -23 19 -5z m279 7 c2 -20
16 -43 30 -48 12 -5 14 2 9 32 -3 20 -2 31 1 24 3 -6 11 -9 17 -5 7 4 8 0 4
-12 -4 -9 -3 -23 3 -30 13 -16 -28 -29 -46 -14 -8 7 -14 7 -19 -1 -8 -12 -35
-14 -35 -1 0 5 7 8 16 7 9 0 19 5 21 12 3 6 -2 12 -11 12 -18 0 -29 16 -21 31
8 12 30 7 31 -7z m627 9 c-7 -2 -19 -2 -25 0 -7 3 -2 5 12 5 14 0 19 -2 13 -5z
m1462 -11 c-3 -9 0 -20 7 -25 10 -6 9 -8 -3 -4 -9 3 -22 0 -28 -6 -8 -8 -11
-8 -11 1 0 7 5 12 11 12 6 0 8 8 5 18 -4 13 -1 19 9 19 10 0 14 -6 10 -15z
m-2158 -23 c-3 -11 -1 -19 5 -19 5 0 6 -4 3 -10 -13 -20 -27 -10 -21 15 8 33
-7 32 -24 -1 -13 -23 -15 -24 -21 -7 -8 23 1 50 11 33 5 -8 11 -6 20 4 16 20
33 10 27 -15z m578 21 c18 -8 17 -9 -7 -9 -16 -1 -28 4 -28 9 0 12 8 12 35 0z
m1155 -20 c0 -16 -4 -30 -8 -30 -6 0 -9 47 -3 58 5 10 11 -3 11 -28z m-2006
-1 c-3 -5 -10 -7 -15 -3 -5 3 -7 10 -3 15 3 5 10 7 15 3 5 -3 7 -10 3 -15z
m577 12 c7 11 9 10 9 -3 0 -12 8 -18 25 -18 14 0 25 -4 25 -10 0 -12 -2 -12
-34 0 -17 6 -26 6 -26 0 0 -6 5 -10 11 -10 5 0 8 -4 5 -9 -7 -10 -31 -9 -42 2
-4 4 -2 7 5 7 7 0 9 10 6 28 -3 15 -2 21 1 13 5 -11 8 -11 15 0z m1902 2 c-7
-2 -19 -2 -25 0 -7 3 -2 5 12 5 14 0 19 -2 13 -5z m-2326 -9 c-3 -3 -12 -4
-19 -1 -8 3 -5 6 6 6 11 1 17 -2 13 -5z m1538 -4 c4 -6 1 -9 -6 -8 -6 2 -14
-3 -16 -9 -8 -21 25 -15 37 6 10 20 52 23 68 6 4 -4 1 -5 -5 -1 -15 8 -18 -10
-3 -19 6 -3 10 -10 10 -16 0 -11 -59 -8 -66 3 -3 5 -14 3 -25 -2 -15 -9 -21
-7 -25 5 -12 30 15 61 31 35z m270 -10 c-3 -5 -13 -6 -21 -3 -12 4 -13 8 -3
14 15 9 32 2 24 -11z m-1288 -17 c-3 -3 -11 -2 -17 2 -9 6 -9 10 1 16 14 8 27
-7 16 -18z m877 12 c-8 -20 13 -19 24 1 8 14 10 12 14 -10 3 -15 1 -29 -3 -32
-5 -3 -9 -18 -9 -34 0 -33 -16 -48 -33 -31 -9 9 -7 19 6 43 16 28 16 33 3 40
-17 10 -22 38 -6 38 5 0 7 -7 4 -15z m339 8 c-13 -2 -33 -2 -45 0 -13 2 -3 4
22 4 25 0 35 -2 23 -4z m211 -25 c-1 -34 -25 -50 -40 -27 -5 8 -3 9 6 4 10 -6
12 -1 8 18 -3 15 -2 24 3 22 4 -3 10 -1 14 5 9 15 10 13 9 -22z m-1344 8 c0
-10 -11 -14 -35 -13 -34 1 -42 7 -28 20 13 13 63 7 63 -7z m880 6 c0 -14 -11
-21 -26 -15 -21 8 -17 23 6 23 11 0 20 -4 20 -8z m256 -14 c4 -6 -1 -17 -10
-24 -16 -12 -16 -13 1 -17 12 -3 9 -5 -9 -6 -30 -1 -38 16 -13 25 8 4 15 10
15 16 0 5 -4 6 -10 3 -5 -3 -10 -1 -10 4 0 15 27 14 36 -1z m290 -15 c-10 -10
-19 5 -10 18 6 11 8 11 12 0 2 -7 1 -15 -2 -18z m-813 -2 c-3 -13 2 -20 17
-24 30 -8 20 -31 -15 -35 -22 -3 -27 0 -21 13 3 9 6 28 6 41 0 13 4 24 9 24 5
0 7 -8 4 -19z m777 10 c0 -5 -9 -7 -20 -4 -11 3 -20 7 -20 9 0 2 9 4 20 4 11
0 20 -4 20 -9z m120 -6 c0 -8 -8 -15 -17 -15 -15 0 -16 2 -3 10 8 5 12 10 7
10 -4 0 -16 -5 -27 -12 -21 -13 -36 -6 -25 11 10 17 65 14 65 -4z m-2347 -35
c3 -11 1 -20 -4 -20 -5 0 -9 8 -9 17 0 15 -2 14 -15 -3 -14 -19 -14 -18 -15 4
0 28 35 30 43 2z m757 -6 c-16 -41 -13 -44 43 -44 35 0 47 -3 37 -9 -8 -6 -19
-7 -25 -4 -5 3 -4 0 2 -7 10 -11 9 -17 -4 -32 -13 -14 -13 -18 -2 -18 10 -1 8
-4 -4 -11 -25 -15 -34 -3 -15 18 20 23 12 43 -16 43 -12 0 -31 7 -44 15 -20
14 -21 14 -16 0 3 -8 10 -15 14 -15 5 0 16 -14 25 -32 15 -30 14 -34 -4 -59
-26 -35 -33 -73 -20 -107 7 -20 7 -24 -1 -16 -24 24 -23 78 4 116 14 21 21 40
16 43 -6 4 -10 15 -10 25 0 16 -5 19 -32 14 -18 -3 -38 -7 -45 -9 -6 -2 -14
-1 -18 3 -3 3 -16 7 -28 7 -17 0 -22 6 -22 25 0 27 25 35 33 11 3 -10 0 -12
-12 -8 -10 4 -16 1 -16 -8 0 -25 30 -17 40 11 9 23 15 26 54 22 40 -3 44 -1
54 25 6 15 13 27 16 27 3 0 1 -12 -4 -26z m280 -53 c0 -33 -29 -95 -30 -64 0
6 5 15 10 18 16 10 12 78 -6 105 l-16 25 21 -24 c13 -14 21 -37 21 -60z m327
54 c-1 -11 -11 -23 -22 -27 -11 -3 30 -6 90 -7 l111 -1 -1 27 c0 14 6 28 13
30 6 3 12 -3 12 -12 0 -9 -4 -13 -10 -10 -5 3 -10 1 -10 -4 0 -6 6 -11 13 -11
8 0 14 -7 14 -15 0 -14 -50 -21 -108 -16 -12 1 -15 -7 -13 -38 2 -38 1 -40
-18 -30 -15 8 -19 8 -14 0 4 -6 2 -11 -3 -11 -19 0 -12 28 9 33 11 3 20 10 20
17 0 6 -5 8 -12 4 -8 -5 -9 -2 -5 9 6 15 -3 17 -66 18 -40 0 -67 3 -60 5 7 3
9 12 6 20 -9 25 5 44 31 42 19 -2 24 -8 23 -23z m-551 -21 c-3 -8 -10 -12 -16
-9 -7 4 -6 14 2 28 12 24 24 8 14 -19z m904 11 c0 -7 -8 -16 -17 -20 -17 -7
-16 -8 2 -15 18 -8 18 -9 -5 -11 -21 -1 -19 -3 10 -9 l35 -7 -37 -2 c-20 0
-40 4 -43 9 -3 6 -1 10 4 10 6 0 11 5 11 11 0 7 8 18 18 25 16 13 16 14 -3 7
-18 -6 -18 -5 -6 10 14 18 31 14 31 -8z m357 -42 l-67 -68 69 0 c61 0 74 -4
113 -30 125 -89 123 -273 -4 -349 l-43 -25 130 -4 130 -3 -137 -2 c-124 -2
-137 -4 -131 -19 5 -12 2 -15 -10 -10 -11 4 -17 1 -17 -7 0 -8 6 -17 13 -19 7
-3 5 -6 -5 -6 -21 -1 -25 44 -5 52 6 3 -45 6 -115 6 -118 1 -148 -5 -117 -25
8 -4 7 -9 -2 -15 -23 -14 -30 -10 -25 16 l5 25 -145 0 c-79 0 -144 4 -144 9 0
7 403 394 535 514 55 50 40 27 -28 -40z m-949 42 c-2 -6 -6 -9 -10 -7 -5 1 -8
-5 -8 -14 0 -10 6 -14 15 -10 8 3 15 1 15 -4 0 -16 -30 -11 -36 5 -8 20 3 48
17 43 6 -2 9 -8 7 -13z m72 -21 c0 -9 -9 -18 -20 -21 -13 -3 -20 -14 -20 -29
0 -12 -5 -26 -11 -30 -8 -4 -9 3 -5 25 3 17 9 44 12 61 5 26 8 28 25 20 10 -6
19 -18 19 -26z m663 6 c9 -17 11 -32 6 -36 -5 -3 -9 2 -9 11 0 11 -5 15 -15
11 -13 -5 -15 10 -6 42 3 8 11 -2 24 -28z m353 5 c-3 -9 0 -15 9 -15 7 0 16 8
19 18 3 9 3 -6 1 -35 -4 -57 -21 -97 -36 -88 -15 10 -10 40 11 65 18 21 29 42
13 27 -10 -11 -32 13 -26 29 3 8 7 14 10 14 3 0 3 -7 -1 -15z m162 -3 c2 -7
-2 -10 -12 -6 -12 5 -16 0 -16 -22 l1 -29 29 34 c17 20 34 31 43 28 8 -3 19
-1 25 5 11 11 32 3 32 -12 0 -5 -7 -7 -16 -3 -15 6 -15 4 0 -20 10 -14 13 -27
9 -30 -5 -3 -35 -4 -68 -3 -53 3 -60 6 -63 25 -2 12 -1 29 2 38 7 16 28 13 34
-5z m187 -12 c-5 -21 -3 -30 6 -30 21 0 0 -14 -26 -17 -14 -2 -25 1 -25 7 0 5
6 9 13 8 8 -2 11 7 9 27 -2 23 0 26 8 15 8 -13 10 -13 10 3 0 9 3 17 6 17 3 0
3 -13 -1 -30z m-2005 -45 c-14 -16 -40 -20 -40 -6 0 5 7 8 16 7 9 0 19 5 21
12 3 6 -3 12 -12 12 -13 0 -14 3 -4 22 l12 23 10 -28 c6 -19 5 -32 -3 -42z
m-144 15 c8 0 14 6 14 14 0 11 9 13 38 9 49 -8 57 -17 10 -11 -21 2 -38 3 -38
2 0 -1 -3 -9 -6 -18 -4 -11 0 -16 12 -16 16 0 16 -2 4 -10 -8 -5 -20 -24 -26
-42 -6 -18 -15 -32 -20 -31 -16 4 -16 39 1 53 19 16 19 36 0 44 -8 3 -14 16
-14 28 l2 23 4 -22 c2 -13 11 -23 19 -23z m481 22 c-9 -12 -9 -16 1 -19 6 -3
12 -9 12 -15 0 -6 -7 -8 -15 -5 -8 4 -17 2 -20 -4 -4 -5 -11 -6 -17 -3 -7 4
-5 10 6 16 9 5 16 17 16 27 0 10 7 18 15 18 12 0 12 -3 2 -15z m102 -26 c-9
-8 -10 -8 -5 2 4 6 2 12 -5 12 -8 0 -7 5 2 17 13 15 14 15 17 -2 2 -9 -2 -22
-9 -29z m261 34 c0 -5 -9 -10 -21 -10 -11 0 -17 5 -14 10 3 6 13 10 21 10 8 0
14 -4 14 -10z m1047 4 c-3 -3 -12 -4 -19 -1 -8 3 -5 6 6 6 11 1 17 -2 13 -5z
m-2076 -19 c5 4 6 -2 2 -11 -5 -13 -3 -15 7 -9 8 5 11 4 6 -3 -11 -18 -36 -2
-35 22 0 11 3 15 6 8 2 -6 9 -10 14 -7z m70 -3 c-6 -11 -6 -23 -1 -28 5 -5 -1
-10 -16 -10 -28 -2 -32 11 -6 25 15 9 15 12 2 21 -12 8 -11 10 8 10 19 0 21
-3 13 -18z m659 -2 c0 -5 -7 -10 -15 -10 -8 0 -15 5 -15 10 0 6 7 10 15 10 8
0 15 -4 15 -10z m1353 3 c-7 -2 -19 -2 -25 0 -7 3 -2 5 12 5 14 0 19 -2 13 -5z
m-2217 -56 c-2 -52 -10 -77 -24 -77 -9 0 -8 53 2 98 12 50 25 38 22 -21z
m1764 40 c35 -12 50 -39 30 -52 -7 -4 -14 2 -17 14 -4 16 -14 21 -42 22 -20 1
-28 3 -18 6 9 2 15 9 12 14 -8 11 -7 11 35 -4z m-1367 -4 c-7 -2 -19 -2 -25 0
-7 3 -2 5 12 5 14 0 19 -2 13 -5z m2123 -9 c-3 -9 -6 -18 -6 -20 0 -2 -4 -4
-9 -4 -5 0 -7 9 -4 20 3 11 10 20 15 20 6 0 7 -7 4 -16z m-673 0 c3 -4 2 -16
-4 -27 -8 -15 -8 -18 1 -12 8 5 11 3 8 -5 -10 -30 -28 -21 -28 14 0 34 8 44
23 30z m-228 -22 c-3 -9 -1 -19 6 -22 8 -6 8 -9 0 -14 -6 -4 -11 -2 -11 5 0 9
-3 9 -14 0 -10 -8 -16 -9 -21 -1 -3 5 1 10 11 10 11 0 15 6 12 18 -3 12 0 19
9 19 8 0 12 -6 8 -15z m-1522 -30 c-5 -27 -3 -33 7 -27 8 5 11 3 9 -4 -3 -7
-8 -12 -12 -12 -4 1 -17 1 -29 1 -20 1 -21 2 -6 11 13 7 16 18 12 38 -4 20 -2
28 9 28 12 0 14 -8 10 -35z m1663 3 c0 -28 -3 -31 -24 -27 -20 4 -21 6 -9 13
8 5 13 17 10 27 -3 12 1 19 9 19 9 0 14 -12 14 -32z m-336 6 c-17 -33 -12 -51
15 -51 14 0 25 5 25 11 0 5 -5 7 -10 4 -6 -4 -5 5 2 19 15 35 26 33 20 -4 -3
-24 0 -30 14 -32 11 0 -1 -4 -26 -7 -26 -3 -48 -2 -52 4 -14 19 -8 -26 7 -58
l16 -32 -21 24 c-11 13 -20 34 -20 47 0 12 -4 25 -9 28 -4 3 -6 -6 -3 -20 4
-25 4 -25 -59 -22 -61 3 -64 4 -64 28 0 27 25 35 33 11 3 -10 0 -12 -12 -8
-10 4 -16 1 -16 -8 0 -24 26 -17 38 9 9 21 17 25 54 23 38 -2 44 1 55 26 7 15
15 27 18 27 3 0 1 -9 -5 -19z m280 -56 c0 -19 -9 -43 -21 -56 l-21 -24 16 25
c20 31 20 66 1 105 l-15 30 20 -24 c11 -13 20 -38 20 -56z m-840 12 c0 -18 5
-38 12 -45 9 -9 9 -12 0 -12 -7 0 -12 5 -12 11 0 8 -4 8 -14 0 -11 -9 -16 -9
-22 0 -4 7 0 17 9 24 20 14 22 41 5 48 -8 3 -6 6 5 6 13 1 17 -7 17 -32z m126
-2 c18 -43 17 -91 -2 -130 -8 -16 -11 -21 -8 -10 16 50 16 104 0 136 -18 35
-19 39 -10 39 3 0 12 -16 20 -35z m1599 10 c0 -17 -6 -22 -24 -22 -15 0 -19 2
-11 7 7 4 11 14 8 22 -4 8 1 14 11 15 10 1 16 -6 16 -22z m-1370 -5 c-3 -4 1
-10 7 -13 10 -3 10 -9 2 -23 -12 -21 -44 -32 -44 -15 0 6 3 10 8 10 18 -3 32
2 32 11 0 6 -6 10 -14 10 -12 0 -14 10 -7 38 1 2 6 0 11 -3 6 -4 8 -10 5 -15z
m1118 13 c3 -5 -17 -6 -44 -5 l-49 4 0 -96 c0 -57 -4 -96 -10 -96 -5 0 -10 11
-10 24 0 13 -3 32 -7 42 -4 12 -3 15 5 10 9 -5 12 11 12 58 l0 66 49 0 c28 0
52 -3 54 -7z m331 -2 c8 -13 -18 -21 -46 -13 l-23 6 25 7 c36 10 38 10 44 0z
m-1594 -41 c5 0 14 8 20 18 9 13 10 10 4 -17 -4 -22 -3 -31 4 -27 6 3 1 -12
-10 -35 -19 -39 -19 -41 -1 -55 17 -14 17 -14 -2 -12 -19 3 -20 -2 -19 -79 1
-70 -1 -83 -15 -83 -10 0 -12 3 -5 8 7 5 9 32 5 82 -4 47 -9 68 -14 55 -10
-30 -11 -77 -3 -105 7 -20 6 -23 -5 -13 -7 7 -13 35 -13 64 0 40 5 55 21 68
15 13 19 25 15 49 -3 23 0 33 12 38 20 8 21 30 1 38 -8 3 -14 16 -14 28 l2 23
4 -22 c2 -13 8 -23 13 -23z m489 24 c-10 -13 -10 -17 2 -25 8 -5 11 -9 7 -9
-18 0 -24 -2 -35 -11 -7 -7 -14 -6 -18 1 -3 5 -1 10 5 10 6 0 15 11 20 25 5
14 15 25 21 25 8 0 7 -5 -2 -16z m106 -22 c-5 -14 -7 -14 -15 -2 -5 9 -4 20 3
28 14 17 22 0 12 -26z m-1630 -9 c0 -13 -3 -23 -7 -23 -5 0 -8 6 -8 13 0 8 -4
7 -10 -3 -8 -12 -10 -9 -10 12 0 19 5 26 18 25 11 0 17 -9 17 -24z m428 20
c-13 -2 -33 -2 -45 0 -13 2 -3 4 22 4 25 0 35 -2 23 -4z m687 -1 c-23 -4 -24
-5 -5 -13 18 -8 18 -8 -4 -6 -39 3 -38 27 1 26 28 -2 29 -3 8 -7z m465 -2 c-3
-5 -10 -10 -16 -10 -5 0 -9 5 -9 10 0 6 7 10 16 10 8 0 12 -4 9 -10z m698 3
c-10 -3 -10 -9 0 -24 10 -17 9 -22 -6 -34 -18 -13 -18 -13 0 -18 10 -3 2 -5
-17 -6 -26 0 -31 2 -20 9 8 5 11 10 5 10 -5 1 0 5 13 10 25 11 30 30 7 30 -8
0 -15 7 -15 15 0 9 9 15 23 14 12 0 17 -3 10 -6z m-1612 -49 c-7 -29 -9 -33
-10 -14 -1 20 -3 22 -11 10 -5 -8 -10 -11 -10 -7 0 9 34 56 38 53 1 -2 -2 -21
-7 -42z m1709 15 c0 -10 -5 -19 -11 -19 -6 0 -8 8 -5 18 5 14 4 14 -9 -2 -15
-19 -15 -19 -15 1 0 21 17 35 33 26 4 -2 7 -13 7 -24z m-930 7 c0 -8 -5 -18
-11 -22 -8 -4 -7 -9 2 -15 10 -6 7 -8 -9 -6 -25 1 -29 15 -8 23 8 3 12 12 9
20 -3 8 0 14 6 14 6 0 11 -6 11 -14z m-1017 -9 c-3 -5 -11 -6 -18 -3 -7 2 -16
-5 -20 -17 -4 -14 -8 -17 -12 -9 -9 22 5 40 30 38 14 0 23 -5 20 -9z m-174
-14 c0 -11 -3 -13 -6 -5 -2 6 -9 10 -13 7 -5 -3 -7 -12 -4 -20 4 -8 10 -12 15
-9 5 3 9 0 9 -5 0 -15 -15 -14 -29 3 -14 16 -4 46 15 46 8 0 14 -8 13 -17z
m281 7 c0 -5 -9 -10 -20 -10 -11 0 -20 5 -20 10 0 6 9 10 20 10 11 0 20 -4 20
-10z m-627 -16 c8 -9 -11 -44 -23 -44 -6 0 -10 8 -10 18 0 27 18 41 33 26z
m1006 -6 c-7 -8 -36 -13 -68 -13 l-56 0 -3 -35 c-1 -19 -5 -42 -8 -50 -4 -13
-6 -13 -14 0 -13 20 -12 33 0 25 6 -4 10 6 10 24 0 16 6 33 13 38 8 5 0 10
-23 14 -22 4 2 7 63 8 78 1 95 -2 86 -11z m-1058 -5 c-11 -5 -11 -7 0 -14 11
-7 10 -9 -3 -9 -10 0 -18 7 -18 15 0 8 8 15 18 14 12 0 13 -2 3 -6z m606 -24
c1 -22 -2 -26 -18 -22 -24 7 -24 12 -1 30 16 14 16 14 0 9 -10 -3 -18 -1 -18
5 0 24 35 2 37 -22z m253 16 c0 -8 -4 -15 -8 -15 -5 0 -9 7 -9 15 0 8 4 15 9
15 4 0 8 -7 8 -15z m1678 -10 c2 -18 2 -18 -8 -2 -6 9 -17 17 -25 17 -25 0
-28 -21 -6 -51 23 -31 21 -39 -12 -76 -10 -12 -16 -26 -12 -32 9 -15 52 -14
58 2 3 7 6 5 6 -5 1 -14 -7 -18 -31 -18 -18 0 -40 5 -48 10 -12 8 -10 14 13
38 31 32 34 53 11 87 -22 34 -11 57 23 53 19 -2 29 -10 31 -23z m-829 -12 c-7
-20 -6 -28 3 -35 14 -9 15 -8 -27 -13 -16 -2 -22 -1 -11 2 14 4 17 11 12 36
-4 23 -3 28 4 17 8 -13 10 -12 10 3 0 9 4 17 10 17 6 0 6 -10 -1 -27z m1067
-4 c0 -11 -7 -17 -18 -16 -20 1 -20 1 -13 20 8 20 31 17 31 -4z m-369 -24 c-7
-23 -13 -31 -18 -23 -4 6 -3 20 2 29 7 13 5 19 -9 22 -11 3 -7 5 10 6 25 1 26
0 15 -34z m208 13 c-3 -13 -7 -41 -8 -62 -1 -23 -8 -41 -16 -44 -11 -4 -12 6
-6 54 8 65 11 74 27 74 6 0 8 -9 3 -22z m-1645 -18 c0 -16 -4 -30 -8 -30 -5 0
-7 14 -4 30 2 17 6 30 8 30 2 0 4 -13 4 -30z m60 6 c0 -25 -22 -51 -33 -39 -9
8 -9 48 0 56 14 15 33 6 33 -17z m405 4 c4 -6 1 -9 -7 -8 -15 3 -16 -27 -5
-107 7 -48 -4 -88 -19 -72 -4 4 -3 12 2 17 7 7 7 34 1 79 -5 39 -7 77 -4 85 7
18 23 21 32 6z m192 -69 c5 -40 -11 -101 -27 -101 -5 0 -2 14 7 31 15 30 14
69 -3 114 -5 15 -4 17 5 9 7 -6 15 -30 18 -53z m1096 21 c-5 -25 -3 -33 5 -28
7 4 12 3 12 -3 0 -5 -4 -13 -10 -16 -5 -3 -10 -2 -10 3 0 6 -10 8 -22 5 -20
-4 -21 -3 -6 7 12 7 16 19 12 39 -4 20 -2 28 9 28 12 0 14 -8 10 -35z m-1492
19 c-12 -7 -12 -13 -3 -24 12 -14 7 -27 -10 -27 -5 0 -6 5 -3 10 3 6 1 10 -5
10 -8 0 -8 6 0 20 6 11 16 20 23 20 8 0 7 -3 -2 -9z m259 -17 c0 -8 -6 -14
-12 -14 -9 0 -8 -4 2 -10 12 -8 9 -10 -12 -10 -26 0 -26 0 -11 30 14 30 33 32
33 4z m90 1 c0 -8 -2 -15 -4 -15 -2 0 -6 7 -10 15 -3 8 -1 15 4 15 6 0 10 -7
10 -15z m810 -19 c0 -8 -5 -18 -12 -22 -8 -5 -6 -10 8 -15 16 -6 15 -8 -8 -8
-30 -1 -38 13 -13 23 8 3 15 10 15 16 0 6 -5 8 -12 4 -7 -4 -8 -3 -4 4 10 17
26 15 26 -2z m-1101 -28 c-9 -17 -5 -22 14 -19 11 2 8 -17 -5 -25 -6 -4 -14
-2 -16 4 -2 6 -9 10 -15 8 -7 -1 -9 -1 -4 1 4 3 7 15 7 27 0 13 6 23 14 23 11
0 13 -5 5 -19z m85 -9 c-3 -5 -10 -7 -15 -3 -5 3 -7 10 -3 15 3 5 10 7 15 3 5
-3 7 -10 3 -15z m147 -9 c5 0 9 8 9 17 0 9 3 14 6 10 10 -10 6 -99 -5 -110
-16 -16 -25 21 -12 49 6 14 7 23 2 20 -9 -6 -22 17 -20 37 1 7 3 4 6 -5 2 -10
9 -18 14 -18z m-572 -47 c-1 -57 -2 -62 -9 -34 -4 18 -6 41 -5 50 2 9 4 24 4
34 1 9 3 17 6 17 3 0 5 -30 4 -67z m59 60 c-10 -2 -26 -2 -35 0 -10 3 -2 5 17
5 19 0 27 -2 18 -5z m49 -90 c-2 -21 -4 -6 -4 32 0 39 2 55 4 38 2 -18 2 -50
0 -70z m181 90 c-10 -2 -26 -2 -35 0 -10 3 -2 5 17 5 19 0 27 -2 18 -5z m245
0 c-7 -2 -21 -2 -30 0 -10 3 -4 5 12 5 17 0 24 -2 18 -5z m1163 -40 c-3 -4 -6
0 -6 8 0 11 -2 11 -10 -1 -7 -12 -10 -8 -10 15 l0 29 16 -22 c9 -13 13 -26 10
-29z m14 43 c0 -3 -4 -8 -10 -11 -5 -3 -10 -1 -10 4 0 6 5 11 10 11 6 0 10 -2
10 -4z m-1420 -42 c6 -14 8 -30 4 -35 -7 -12 -34 -11 -34 2 0 5 4 8 9 4 5 -3
12 -1 16 5 3 5 -2 10 -12 11 -10 0 -13 3 -5 6 6 2 12 9 12 14 0 6 -4 7 -10 4
-5 -3 -10 -1 -10 4 0 21 21 11 30 -15z m236 4 c-1 -13 -6 -24 -11 -25 -13 -4
-13 30 0 39 14 11 14 11 11 -14z m-462 -9 c-3 -5 -11 -9 -19 -9 -7 0 -16 -10
-18 -22 -3 -18 -5 -16 -6 8 0 17 2 33 5 36 8 9 44 -3 38 -13z m1389 14 c-13
-2 -33 -2 -45 0 -13 2 -3 4 22 4 25 0 35 -2 23 -4z m-8 -43 c0 -20 -5 -26 -22
-25 -12 0 -25 4 -29 8 -5 4 -1 5 9 1 13 -5 17 -1 17 18 0 14 6 25 13 25 6 0
12 -12 12 -27z m80 2 c0 -16 -6 -26 -18 -28 -13 -2 -17 2 -13 13 3 8 6 20 6
27 0 7 6 13 13 13 7 0 13 -11 12 -25z m83 -4 c-5 -32 -28 -35 -28 -4 0 17 5
26 16 26 10 0 14 -7 12 -22z m-48 -4 c0 -8 -4 -12 -10 -9 -5 3 -10 10 -10 16
0 5 5 9 10 9 6 0 10 -7 10 -16z m-1493 -24 c-3 -10 0 -21 7 -24 6 -2 0 -5 -13
-5 -17 -1 -22 3 -17 15 3 9 6 20 6 25 0 5 5 9 11 9 6 0 9 -9 6 -20z m129 -5
c-3 -8 -1 -15 3 -15 5 0 12 6 14 13 4 7 6 6 6 -5 2 -30 -11 -48 -33 -47 -17 1
-18 2 -3 6 14 4 16 8 6 19 -11 13 -6 44 7 44 3 0 4 -7 0 -15z m297 -3 c43 -1
66 -6 62 -12 -4 -6 -10 -8 -14 -5 -5 2 -51 5 -104 6 -53 2 -94 6 -92 10 3 4
22 6 42 5 21 -2 69 -3 106 -4z m131 -28 c10 -25 7 -81 -3 -65 -7 11 -9 11 -14
0 -3 -8 -6 7 -6 34 -1 46 11 62 23 31z m1001 3 c13 16 14 15 10 -12 -2 -16 -4
-38 -4 -47 -1 -11 -9 -18 -20 -18 -30 0 -34 17 -9 34 12 9 17 16 10 16 -6 0
-11 10 -11 23 1 18 2 18 6 4 5 -18 5 -18 18 0z m-1255 -25 c0 -10 -6 -24 -12
-30 -10 -10 -10 -15 2 -22 11 -8 9 -9 -9 -7 -28 4 -42 27 -17 27 9 0 16 2 16
4 0 2 3 12 7 22 4 12 3 15 -5 10 -7 -4 -12 -2 -12 3 0 6 7 11 15 11 8 0 15 -8
15 -18z m50 -11 c-5 -11 -8 -26 -5 -33 4 -9 -2 -14 -15 -15 -11 -1 -20 2 -20
8 0 5 4 9 9 9 5 0 7 10 3 22 -3 14 -1 19 6 14 6 -3 13 -2 17 4 11 18 16 10 5
-9z m106 3 c-3 -9 -6 -22 -6 -30 0 -12 -3 -12 -14 -2 -10 10 -11 17 -2 30 13
22 30 24 22 2z m-57 -30 c-10 -12 -14 -12 -20 -2 -4 7 -3 16 4 20 18 11 29 -2
16 -18z"/>
<path d="M1460 1685 c0 -9 5 -15 11 -13 6 2 11 8 11 13 0 5 -5 11 -11 13 -6 2
-11 -4 -11 -13z"/>
<path d="M1467 1633 c-4 -3 -7 -18 -6 -32 1 -26 1 -25 10 3 9 31 7 41 -4 29z"/>
<path d="M1276 1624 c-4 -10 -1 -14 6 -12 15 5 23 28 10 28 -5 0 -13 -7 -16
-16z"/>
<path d="M2771 1564 c0 -11 3 -14 6 -6 3 7 2 16 -1 19 -3 4 -6 -2 -5 -13z"/>
<path d="M1442 1501 c4 -13 18 -16 19 -4 0 4 -5 9 -11 12 -7 2 -11 -2 -8 -8z"/>
<path d="M1687 1020 c-89 -23 -142 -71 -142 -130 0 -80 91 -134 225 -134 137
-1 226 47 236 127 9 75 -81 136 -211 143 -38 2 -87 -1 -108 -6z m90 -37 c-3
-10 -5 -4 -5 12 0 17 2 24 5 18 2 -7 2 -21 0 -30z m69 -24 c3 -6 2 -15 -4 -21
-6 -6 -8 -18 -5 -27 4 -14 3 -14 -6 -1 -10 13 -12 13 -21 0 -8 -12 -10 -11
-10 7 0 45 28 71 46 42z m-48 -72 c12 -3 10 -5 -5 -6 -20 -1 -23 4 -22 32 2
29 2 29 6 5 2 -15 12 -29 21 -31z m120 -4 c-10 -2 -26 -2 -35 0 -10 3 -2 5 17
5 19 0 27 -2 18 -5z m72 -3 c0 -5 -7 -7 -15 -4 -8 4 -15 8 -15 10 0 2 7 4 15
4 8 0 15 -4 15 -10z"/>
<path d="M1820 949 c0 -5 5 -7 10 -4 6 3 10 8 10 11 0 2 -4 4 -10 4 -5 0 -10
-5 -10 -11z"/>
<path d="M2286 1504 c-9 -25 -7 -34 8 -34 19 0 28 14 20 34 -8 20 -20 20 -28
0z"/>
<path d="M2130 1441 c-12 -24 -13 -31 -1 -31 5 0 11 11 13 25 6 30 2 32 -12 6z"/>
<path d="M347 1414 c-4 -4 -7 -14 -7 -23 0 -11 3 -12 11 -4 6 6 10 16 7 23 -2
6 -7 8 -11 4z"/>
<path d="M480 1453 c0 -21 2 -24 15 -13 8 7 15 16 15 20 0 4 -7 10 -15 14 -11
4 -15 -2 -15 -21z"/>
<path d="M532 1468 c-16 -16 -15 -28 2 -28 16 0 29 27 17 34 -4 3 -13 0 -19
-6z"/>
<path d="M560 1446 c0 -9 7 -16 16 -16 17 0 14 22 -4 28 -7 2 -12 -3 -12 -12z"/>
<path d="M510 1290 c0 -5 7 -10 15 -10 8 0 15 5 15 10 0 6 -7 10 -15 10 -8 0
-15 -4 -15 -10z"/>
<path d="M933 1315 c-8 -22 6 -33 17 -15 13 20 12 30 0 30 -6 0 -13 -7 -17
-15z"/>
<path d="M737 1243 c-4 -3 -7 -13 -7 -22 1 -13 3 -13 11 2 11 19 8 33 -4 20z"/>
<path d="M387 1303 c-12 -11 -8 -23 8 -23 8 0 15 7 15 15 0 16 -12 20 -23 8z"/>
<path d="M1500 1255 c0 -8 5 -15 10 -15 6 0 10 7 10 15 0 8 -4 15 -10 15 -5 0
-10 -7 -10 -15z"/>
<path d="M230 1265 c0 -8 5 -15 10 -15 6 0 10 7 10 15 0 8 -4 15 -10 15 -5 0
-10 -7 -10 -15z"/>
<path d="M1367 1264 c-4 -4 -4 -10 -1 -15 6 -10 34 0 34 12 0 10 -24 12 -33 3z"/>
<path d="M1236 1235 c-3 -9 0 -15 9 -15 8 0 15 7 15 15 0 8 -4 15 -9 15 -5 0
-11 -7 -15 -15z"/>
<path d="M2657 1181 c-6 -26 8 -49 17 -26 9 24 8 45 -3 45 -5 0 -11 -9 -14
-19z"/>
<path d="M2382 1105 c-15 -33 -15 -35 3 -35 10 0 15 10 15 30 0 37 -3 37 -18
5z"/>
<path d="M444 1136 c-8 -21 3 -49 16 -41 5 3 10 15 10 25 0 25 -18 36 -26 16z"/>
<path d="M486 1114 c-4 -10 -1 -21 6 -26 29 -18 36 -5 14 25 -13 16 -14 16
-20 1z"/>
<path d="M241 1044 c0 -11 3 -14 6 -6 3 7 2 16 -1 19 -3 4 -6 -2 -5 -13z"/>
<path d="M1221 1024 c0 -11 3 -14 6 -6 3 7 2 16 -1 19 -3 4 -6 -2 -5 -13z"/>
<path d="M2550 975 c0 -8 5 -15 10 -15 6 0 10 7 10 15 0 8 -4 15 -10 15 -5 0
-10 -7 -10 -15z"/>
<path d="M1151 936 c-7 -9 -10 -23 -7 -33 6 -15 8 -15 22 -1 11 11 13 21 7 33
-9 15 -11 15 -22 1z"/>
<path d="M1199 947 c-5 -28 -2 -47 6 -49 14 -2 19 32 6 45 -6 6 -11 8 -12 4z"/>
<path d="M686 925 c-3 -8 -1 -15 4 -15 13 0 22 18 11 24 -5 3 -11 -1 -15 -9z"/>
<path d="M687 864 c-4 -4 -7 -17 -7 -28 1 -19 1 -20 11 -3 11 19 8 43 -4 31z"/>
<path d="M477 866 c-3 -8 -2 -18 3 -21 13 -8 24 15 12 27 -6 6 -11 4 -15 -6z"/>
<path d="M1860 710 c0 -5 0 -13 0 -17 0 -4 11 -8 26 -10 16 -3 23 0 19 7 -3 6
-11 8 -16 5 -5 -4 -9 1 -9 9 0 9 -4 16 -10 16 -5 0 -10 -4 -10 -10z"/>
<path d="M1696 631 c-4 -7 -5 -15 -2 -18 9 -9 19 4 14 18 -4 11 -6 11 -12 0z"/>
<path d="M1510 630 c0 -5 7 -10 16 -10 8 0 12 5 9 10 -3 6 -10 10 -16 10 -5 0
-9 -4 -9 -10z"/>
<path d="M713 585 c-3 -9 -3 -18 0 -21 9 -9 27 6 27 22 0 19 -19 18 -27 -1z"/>
<path d="M750 583 c0 -13 5 -23 10 -23 13 0 13 11 0 30 -8 12 -10 11 -10 -7z"/>
<path d="M1380 634 c0 -9 5 -14 12 -12 18 6 21 28 4 28 -9 0 -16 -7 -16 -16z"/>
<path d="M2067 495 c-51 -18 -53 -21 -32 -45 21 -23 9 -27 -15 -5 -15 14 -19
13 -34 -4 -41 -45 -60 -156 -31 -184 8 -8 11 -17 8 -21 -10 -10 41 -75 74 -93
18 -9 31 -19 29 -21 -7 -6 -61 26 -83 50 -47 50 -66 142 -43 204 10 26 9 25
-32 -11 -124 -111 -257 -245 -248 -250 5 -3 116 -5 244 -4 l235 2 4 36 4 36 1
-36 2 -37 39 10 c49 12 104 57 125 102 20 42 21 137 2 174 -33 62 -113 112
-178 112 -18 -1 -50 -7 -71 -15z m18 -105 c10 -11 14 -20 9 -20 -5 0 -15 9
-22 20 -7 11 -11 20 -9 20 2 0 12 -9 22 -20z m66 -70 c5 0 9 7 9 16 0 9 5 14
12 12 18 -6 20 -22 3 -43 -15 -20 -15 -20 -10 0 3 11 -1 7 -9 -10 -13 -26 -15
-27 -16 -8 0 17 -4 21 -17 16 -15 -6 -16 -4 -5 9 9 11 10 18 2 23 -5 3 -10 11
-10 18 0 6 7 1 16 -11 8 -12 19 -22 25 -22z m-66 -30 c-3 -5 -11 -10 -16 -10
-6 0 -7 5 -4 10 3 6 11 10 16 10 6 0 7 -4 4 -10z m-59 -25 c-11 -8 -22 -12
-25 -9 -6 6 19 24 34 24 6 -1 1 -7 -9 -15z m121 -52 c-3 -10 -5 -4 -5 12 0 17
2 24 5 18 2 -7 2 -21 0 -30z m-237 8 c0 -5 -10 -11 -22 -14 -22 -6 -22 -6 -4
8 23 17 26 18 26 6z m-61 -25 c-15 -13 -49 -25 -49 -17 0 5 8 12 18 14 24 6
36 8 31 3z m-79 -31 c0 -2 -9 -9 -20 -15 -12 -6 -20 -7 -20 -1 0 5 8 12 18 14
9 3 18 5 20 6 1 0 2 -1 2 -4z m-75 -35 c-3 -5 -14 -10 -23 -10 -15 0 -15 2 -2
10 20 13 33 13 25 0z"/>
<path d="M1225 609 c-4 -6 -5 -13 -2 -16 7 -7 27 6 27 18 0 12 -17 12 -25 -2z"/>
<path d="M2277 544 c-4 -4 -7 -14 -7 -23 0 -11 3 -12 11 -4 6 6 10 16 7 23 -2
6 -7 8 -11 4z"/>
<path d="M2462 598 c-16 -16 -15 -28 2 -28 16 0 29 27 17 34 -4 3 -13 0 -19
-6z"/>
<path d="M2490 576 c0 -9 7 -16 16 -16 9 0 14 5 12 12 -6 18 -28 21 -28 4z"/>
<path d="M467 513 c-4 -3 -7 -13 -7 -22 1 -13 3 -13 11 2 11 19 8 33 -4 20z"/>
<path d="M1470 449 c0 -24 23 -21 28 4 2 10 -3 17 -12 17 -10 0 -16 -9 -16
-21z"/>
<path d="M1507 451 c-3 -14 0 -21 9 -21 16 0 18 9 5 28 -6 10 -10 9 -14 -7z"/>
<path d="M1223 375 c-3 -9 -3 -18 -1 -21 3 -3 8 4 11 16 6 23 -1 27 -10 5z"/>
<path d="M81 374 c0 -11 3 -14 6 -6 3 7 2 16 -1 19 -3 4 -6 -2 -5 -13z"/>
<path d="M1050 314 c0 -14 4 -23 10 -19 6 3 10 15 10 26 0 10 -4 19 -10 19 -5
0 -10 -12 -10 -26z"/>
<path d="M1571 164 c0 -11 3 -14 6 -6 3 7 2 16 -1 19 -3 4 -6 -2 -5 -13z"/>
<path d="M2591 154 c0 -11 3 -14 6 -6 3 7 2 16 -1 19 -3 4 -6 -2 -5 -13z"/>
<path d="M1612 70 c0 -14 2 -19 5 -12 2 6 2 18 0 25 -3 6 -5 1 -5 -13z"/>
<path d="M2600 40 c0 -5 5 -10 10 -10 6 0 10 5 10 10 0 6 -4 10 -10 10 -5 0
-10 -4 -10 -10z"/>
<path d="M1050 1730 c0 -5 5 -10 10 -10 6 0 10 5 10 10 0 6 -4 10 -10 10 -5 0
-10 -4 -10 -10z"/>
<path d="M1167 1733 c-14 -13 -6 -25 8 -13 12 10 15 9 15 -5 0 -17 2 -17 18
-2 9 8 31 17 47 20 18 2 8 5 -26 6 -31 0 -59 -2 -62 -6z"/>
<path d="M1736 1724 c-11 -27 -7 -37 9 -24 16 14 20 40 6 40 -5 0 -12 -7 -15
-16z"/>
<path d="M1931 1724 c0 -11 3 -14 6 -6 3 7 2 16 -1 19 -3 4 -6 -2 -5 -13z"/>
<path d="M2430 1704 c0 -8 5 -12 10 -9 6 3 10 10 10 16 0 5 -4 9 -10 9 -5 0
-10 -7 -10 -16z"/>
<path d="M105 1700 c-3 -5 1 -10 9 -10 9 0 16 5 16 10 0 6 -4 10 -9 10 -6 0
-13 -4 -16 -10z"/>
<path d="M42 1659 l-42 -31 0 -139 0 -139 65 0 65 0 0 160 c0 147 -1 160 -19
170 -26 13 -21 15 -69 -21z m53 -157 c6 2 11 -7 13 -19 2 -13 -1 -23 -7 -23
-6 0 -8 7 -5 15 4 8 1 15 -4 15 -6 0 -13 -8 -15 -17 -3 -10 -5 2 -5 27 0 31 2
38 6 22 4 -13 12 -22 17 -20z"/>
<path d="M140 1510 l0 -160 53 0 c47 0 54 3 68 29 17 29 16 31 -44 160 -33 72
-64 131 -69 131 -4 0 -8 -72 -8 -160z"/>
<path d="M2744 1488 c-82 -55 -150 -102 -152 -103 -1 -1 0 -10 4 -19 7 -19 34
-22 34 -3 0 19 20 36 36 30 8 -3 14 -14 14 -24 0 -17 9 -19 110 -19 l110 0 0
120 c0 66 -1 120 -3 120 -2 0 -71 -46 -153 -102z"/>
<path d="M272 1378 c-18 -18 -15 -28 8 -28 21 0 25 7 12 27 -6 10 -11 10 -20
1z"/>
<path d="M2640 1370 c0 -5 5 -10 10 -10 6 0 10 5 10 10 0 6 -4 10 -10 10 -5 0
-10 -4 -10 -10z"/>
<path d="M2555 1360 c-3 -5 3 -10 15 -10 12 0 18 5 15 10 -3 6 -10 10 -15 10
-5 0 -12 -4 -15 -10z"/>
<path d="M195 325 c-38 -7 -97 -22 -130 -34 -32 -11 -60 -21 -62 -21 -1 0 -2
-61 -2 -135 l0 -135 91 0 91 0 -5 45 c-3 24 -2 62 2 85 6 33 5 40 -9 41 -11 0
-10 3 5 9 12 5 24 20 28 35 7 29 82 115 100 115 6 0 -2 -10 -17 -22 -55 -41
-85 -103 -94 -200 -4 -39 -2 -47 14 -51 16 -4 16 -5 1 -6 -12 -1 -18 -9 -18
-25 0 -25 1 -25 95 -25 93 1 95 1 95 24 0 14 -7 25 -17 28 -17 4 -17 5 0 6 15
1 17 15 17 140 l0 139 -57 0 c-32 -1 -89 -6 -128 -13z m85 -143 c0 -4 -12 -8
-27 -9 -24 -1 -25 -1 -8 7 26 11 35 12 35 2z m68 1 c-10 -2 -26 -2 -35 0 -10
3 -2 5 17 5 19 0 27 -2 18 -5z m-273 -23 c-3 -5 -16 -10 -28 -9 -21 0 -21 1
-2 9 28 12 37 12 30 0z m58 3 c-7 -2 -19 -2 -25 0 -7 3 -2 5 12 5 14 0 19 -2
13 -5z m-96 -109 c-3 -3 -12 -4 -19 -1 -8 3 -5 6 6 6 11 1 17 -2 13 -5z m66
-1 c-7 -2 -19 -2 -25 0 -7 3 -2 5 12 5 14 0 19 -2 13 -5z m54 1 c-3 -3 -12 -4
-19 -1 -8 3 -5 6 6 6 11 1 17 -2 13 -5z m116 -1 c-7 -2 -19 -2 -25 0 -7 3 -2
5 12 5 14 0 19 -2 13 -5z m60 0 c-7 -2 -19 -2 -25 0 -7 3 -2 5 12 5 14 0 19
-2 13 -5z m12 -23 c-3 -5 -12 -10 -18 -10 -7 0 -6 4 3 10 19 12 23 12 15 0z"/>
<path d="M390 266 c0 -69 2 -75 23 -79 l22 -4 -22 -2 c-21 -1 -23 -6 -23 -61
0 -59 1 -60 21 -49 13 6 19 7 15 1 -3 -6 2 -13 11 -16 10 -2 5 -4 -12 -3 -26
2 -30 -2 -33 -26 l-3 -28 261 1 c144 1 259 4 256 7 -3 4 1 15 11 25 15 17 15
18 -8 19 l-24 1 24 7 25 7 -28 22 c-16 12 -25 22 -21 22 5 0 17 -8 28 -17 20
-18 20 -17 13 11 -10 42 -40 81 -93 121 -35 27 -49 32 -63 25 -26 -14 -40 -12
-16 2 17 10 16 12 -15 25 -71 30 -177 54 -261 58 l-88 5 0 -74z m110 39 c11
-13 10 -14 -4 -9 -9 3 -16 10 -16 15 0 13 6 11 20 -6z m70 -111 c0 -8 9 -14
20 -14 11 0 20 -5 20 -11 0 -6 -6 -9 -14 -6 -10 4 -13 0 -11 -14 2 -11 0 -17
-6 -14 -5 4 -9 13 -9 21 0 8 -10 15 -22 15 -19 1 -20 2 -5 6 13 3 17 11 14 24
-3 10 -1 17 4 13 5 -3 9 -12 9 -20z m120 21 c0 -2 -10 -9 -22 -15 -22 -11 -22
-10 -4 4 21 17 26 19 26 11z m-192 -32 c-10 -2 -26 -2 -35 0 -10 3 -2 5 17 5
19 0 27 -2 18 -5z m190 -20 c-10 -2 -26 -2 -35 0 -10 3 -2 5 17 5 19 0 27 -2
18 -5z m72 -13 c8 -5 11 -10 5 -10 -5 0 -17 5 -25 10 -8 5 -10 10 -5 10 6 0
17 -5 25 -10z m-220 -20 c-8 -5 -19 -10 -25 -10 -5 0 -3 5 5 10 8 5 20 10 25
10 6 0 3 -5 -5 -10z m300 0 c18 -12 2 -12 -25 0 -13 6 -15 9 -5 9 8 0 22 -4
30 -9z m-365 -30 c-3 -5 -12 -10 -18 -10 -7 0 -6 4 3 10 19 12 23 12 15 0z
m112 -22 c-3 -7 -5 -2 -5 12 0 14 2 19 5 13 2 -7 2 -19 0 -25z m-84 -25 c-7
-2 -19 -2 -25 0 -7 3 -2 5 12 5 14 0 19 -2 13 -5z m60 0 c-7 -2 -19 -2 -25 0
-7 3 -2 5 12 5 14 0 19 -2 13 -5z m50 0 c-15 -3 -23 -12 -24 -26 0 -12 -3 -16
-6 -9 -9 22 5 42 29 41 l23 -2 -22 -4z m70 0 c-7 -2 -19 -2 -25 0 -7 3 -2 5
12 5 14 0 19 -2 13 -5z m60 0 c-7 -2 -19 -2 -25 0 -7 3 -2 5 12 5 14 0 19 -2
13 -5z m70 0 c-7 -2 -19 -2 -25 0 -7 3 -2 5 12 5 14 0 19 -2 13 -5z m50 0 c-7
-2 -19 -2 -25 0 -7 3 -2 5 12 5 14 0 19 -2 13 -5z"/>
<path d="M2846 189 c-46 -50 -76 -122 -43 -103 8 5 8 2 -2 -9 -12 -15 -11 -17
10 -18 l24 -1 -24 -7 c-22 -6 -23 -8 -8 -23 9 -8 14 -18 12 -20 -3 -2 16 -5
40 -7 l45 -2 0 116 c0 63 -4 115 -9 115 -5 0 -25 -18 -45 -41z m29 -69 c-27
-12 -43 -12 -25 0 8 5 22 9 30 9 10 0 8 -3 -5 -9z m-2 -67 c-7 -2 -19 -2 -25
0 -7 3 -2 5 12 5 14 0 19 -2 13 -5z"/>
<path d="M1690 15 c0 -8 5 -15 10 -15 6 0 10 7 10 15 0 8 -4 15 -10 15 -5 0
-10 -7 -10 -15z"/>
<path d="M2335 10 c-3 -5 -1 -10 4 -10 6 0 11 5 11 10 0 6 -2 10 -4 10 -3 0
-8 -4 -11 -10z"/>
<path d="M2368 3 c7 -3 16 -2 19 1 4 3 -2 6 -13 5 -11 0 -14 -3 -6 -6z"/>
</g>
</svg>
